<?xml version="1.0" standalone="no"?>
<!DOCTYPE svg PUBLIC "-//W3C//DTD SVG 1.1//EN" "http://www.w3.org/Graphics/SVG/1.1/DTD/svg11.dtd" >
<!--
2013-9-30: Created.
-->
<svg>
<metadata>
Created by iconfont
</metadata>
<defs>

<font id="iconfont" horiz-adv-x="1024" >
  <font-face
    font-family="iconfont"
    font-weight="500"
    font-stretch="normal"
    units-per-em="1024"
    ascent="896"
    descent="-128"
  />
    <missing-glyph />
    
    <glyph glyph-name="icon-wode-dianpudaohang" unicode="&#58992;" d="M832 224c-19.2 0-32-12.8-32-32v-96c0-35.2-28.8-64-64-64H288c-35.2 0-64 28.8-64 64v96c0 19.2-12.8 32-32 32s-32-12.8-32-32v-96c0-70.4 57.6-128 128-128h448c70.4 0 128 57.6 128 128v96c0 19.2-12.8 32-32 32zM928 454.4l-54.4 236.8C864 736 825.6 768 780.8 768h-38.4c-19.2 0-32-12.8-32-32s12.8-32 32-32h38.4c16 0 28.8-9.6 32-25.6l51.2-233.6c-3.2-51.2-44.8-92.8-96-92.8-54.4 0-96 41.6-96 96 0 19.2-12.8 32-32 32s-32-12.8-32-32c0-54.4-41.6-96-96-96s-96 41.6-96 96c0 19.2-12.8 32-32 32s-32-12.8-32-32c0-54.4-41.6-96-96-96-51.2 0-96 41.6-96 92.8l51.2 233.6c3.2 16 16 25.6 32 25.6h256c19.2 0 32 12.8 32 32s-12.8 32-32 32h-256C198.4 768 160 736 150.4 694.4L96 454.4v-12.8c3.2-86.4 73.6-153.6 160-153.6 51.2 0 99.2 25.6 128 64 28.8-38.4 76.8-64 128-64s99.2 25.6 128 64c28.8-38.4 76.8-64 128-64 89.6 0 160 70.4 160 160v6.4zM617.6 704h16c19.2 0 32 12.8 32 32s-12.8 32-32 32h-16c-19.2 0-32-12.8-32-32s12.8-32 32-32z"  horiz-adv-x="1024" />

    
    <glyph glyph-name="icon-wode-wodexiaoxi" unicode="&#58993;" d="M908.8 57.6s-89.6 67.2-38.4 192c16 38.4 25.6 86.4 25.6 134.4 0 211.2-172.8 384-384 384-35.2 0-70.4-6.4-105.6-16-16-6.4-25.6-22.4-22.4-38.4s22.4-25.6 38.4-22.4c28.8 9.6 60.8 12.8 89.6 12.8 176 0 320-144 320-320 0-41.6-6.4-80-19.2-112-35.2-89.6-19.2-160 9.6-208H512c-176 0-320 144-320 320 0 76.8 28.8 150.4 76.8 208 12.8 12.8 9.6 35.2-3.2 44.8s-35.2 9.6-44.8-3.2C160 563.2 128 476.8 128 384c0-211.2 172.8-384 384-384h377.6c12.8 0 25.6 9.6 32 22.4 3.2 12.8 0 28.8-12.8 35.2zM316.8 643.2c6.4 0 12.8 3.2 19.2 6.4 3.2 3.2 6.4 6.4 12.8 6.4 16 9.6 19.2 28.8 9.6 44.8-9.6 16-28.8 19.2-44.8 9.6-6.4-3.2-12.8-6.4-16-6.4-16-12.8-19.2-32-9.6-44.8 6.4-9.6 16-16 28.8-16zM355.2 384m-48 0a48 48 0 1 1 96 0 48 48 0 1 1-96 0ZM508.8 384m-48 0a48 48 0 1 1 96 0 48 48 0 1 1-96 0ZM668.8 384m-48 0a48 48 0 1 1 96 0 48 48 0 1 1-96 0Z"  horiz-adv-x="1024" />

    
    <glyph glyph-name="icon-wode-shouhuodizhi" unicode="&#58994;" d="M745.6 284.8c-16 9.6-35.2 6.4-44.8-9.6l-9.6-16c-9.6-16-6.4-35.2 9.6-44.8 6.4-3.2 12.8-6.4 16-6.4 9.6 0 19.2 6.4 25.6 16l9.6 16c12.8 16 9.6 35.2-6.4 44.8zM323.2 460.8c0-96 80-176 176-176s176 80 176 176-80 176-176 176-176-80-176-176z m288 0c0-60.8-51.2-112-112-112s-112 51.2-112 112 51.2 112 112 112 112-51.2 112-112zM499.2 800C313.6 800 160 649.6 160 460.8 160 384 204.8 288 300.8 160c67.2-89.6 134.4-160 140.8-166.4 16-16 35.2-25.6 60.8-25.6 22.4 0 44.8 9.6 60.8 28.8l89.6 102.4c12.8 16 28.8 35.2 41.6 51.2 9.6 12.8 9.6 35.2-6.4 44.8-12.8 9.6-35.2 9.6-44.8-6.4l-38.4-48-92.8-102.4c-6.4-6.4-19.2-6.4-25.6 0-6.4 6.4-70.4 73.6-134.4 160-105.6 140.8-128 220.8-128 262.4C224 611.2 348.8 736 499.2 736s275.2-124.8 275.2-275.2c0-28.8-9.6-64-28.8-102.4-6.4-16 0-35.2 16-41.6 16-6.4 35.2 0 41.6 16 22.4 48 35.2 92.8 35.2 131.2C838.4 649.6 684.8 800 499.2 800z"  horiz-adv-x="1024" />

    
    <glyph glyph-name="icon-wode-wodeziliao" unicode="&#58995;" d="M800 704h-153.6c-19.2 0-32-12.8-32-32s12.8-32 32-32H800c19.2 0 32-12.8 32-32v-512c0-19.2-12.8-32-32-32H352V608c0 19.2 12.8 32 32 32h32c19.2 0 32 12.8 32 32s-12.8 32-32 32h-32c-54.4 0-96-41.6-96-96v-544H224c-19.2 0-32 12.8-32 32v224c0 19.2 12.8 32 32 32s32 12.8 32 32-12.8 32-32 32c-54.4 0-96-41.6-96-96v-224c0-54.4 41.6-96 96-96h576c54.4 0 96 41.6 96 96V608c0 54.4-41.6 96-96 96zM518.4 640h25.6c19.2 0 32 12.8 32 32s-12.8 32-32 32h-25.6c-19.2 0-32-12.8-32-32s16-32 32-32zM480 448h224c16 0 32 16 32 32s-16 32-32 32h-224c-16 0-32-16-32-32s16-32 32-32zM704 384h-224c-16 0-32-16-32-32s16-32 32-32h224c16 0 32 16 32 32s-16 32-32 32zM704 256h-224c-16 0-32-16-32-32s16-32 32-32h224c16 0 32 16 32 32s-16 32-32 32z"  horiz-adv-x="1024" />

    
    <glyph glyph-name="icon-wode-liulanzuji" unicode="&#58996;" d="M918.4 265.6l-3.2 3.2c-44.8 44.8-89.6 105.6-92.8 131.2v28.8c0 140.8-134.4 256-297.6 256s-297.6-115.2-297.6-256c0-35.2 9.6-73.6 25.6-105.6 9.6-16 28.8-22.4 41.6-12.8 16 9.6 22.4 28.8 12.8 41.6-12.8 25.6-19.2 51.2-19.2 76.8 0 105.6 105.6 192 233.6 192s233.6-86.4 233.6-192v-28.8c3.2-60.8 76.8-140.8 108.8-172.8 16-22.4 22.4-41.6 19.2-64v-3.2c0-38.4-19.2-73.6-51.2-96-35.2-22.4-76.8-25.6-115.2-9.6-19.2 6.4-38.4 25.6-48 48-3.2 6.4-3.2 9.6-6.4 16 0 3.2-3.2 6.4-6.4 12.8l-3.2 6.4c-9.6 25.6-22.4 60.8-64 80-28.8 12.8-54.4 16-83.2 19.2-9.6 3.2-19.2 3.2-28.8 6.4-9.6 3.2-19.2 3.2-28.8 6.4-16 3.2-35.2-9.6-35.2-25.6-3.2-16 9.6-35.2 25.6-35.2 9.6-3.2 19.2-3.2 28.8-6.4 9.6-3.2 19.2-3.2 32-6.4 28.8-3.2 48-6.4 67.2-16 16-6.4 19.2-16 28.8-41.6l3.2-6.4c3.2-6.4 3.2-9.6 6.4-16 0-3.2 3.2-6.4 6.4-16 16-38.4 48-70.4 83.2-83.2 22.4-9.6 48-16 70.4-16 35.2 0 70.4 9.6 102.4 32 51.2 32 80 89.6 80 147.2 9.6 35.2 0 70.4-28.8 105.6zM364.8 288c-12.8 9.6-35.2 9.6-44.8-6.4-9.6-12.8-9.6-35.2 6.4-44.8 6.4-3.2 9.6-6.4 16-12.8 6.4-3.2 12.8-6.4 19.2-6.4 9.6 0 19.2 6.4 25.6 12.8 9.6 16 6.4 35.2-9.6 44.8l-12.8 12.8zM291.2 659.2c6.4 0 12.8 3.2 19.2 6.4 67.2 54.4 150.4 76.8 246.4 67.2 19.2 0 32 12.8 35.2 28.8 0 16-12.8 32-28.8 35.2-112 12.8-211.2-16-291.2-80-12.8-9.6-16-28.8-3.2-44.8 6.4-6.4 12.8-12.8 22.4-12.8zM144 598.4m-48 0a48 48 0 1 1 96 0 48 48 0 1 1-96 0Z"  horiz-adv-x="1024" />

    
    <glyph glyph-name="icon-wode-guanyuhuixianggou" unicode="&#58997;" d="M832 553.6C825.6 601.6 784 640 736 640h-41.6c-16 89.6-92.8 160-188.8 160-96 0-172.8-70.4-188.8-160H275.2c-48 0-89.6-38.4-96-86.4l-9.6-80c-3.2-16 9.6-32 28.8-35.2 16-3.2 32 9.6 35.2 28.8l9.6 80c3.2 16 16 28.8 32 28.8H736c16 0 28.8-12.8 32-28.8l51.2-480c0-9.6-3.2-19.2-9.6-25.6-6.4-6.4-16-9.6-22.4-9.6H224c-9.6 0-19.2 3.2-22.4 9.6-6.4 6.4-9.6 16-9.6 25.6l19.2 195.2c3.2 16-9.6 32-28.8 35.2-19.2 3.2-32-9.6-35.2-28.8L128 73.6c-3.2-25.6 6.4-54.4 25.6-73.6s44.8-32 70.4-32h563.2c25.6 0 54.4 12.8 70.4 32 19.2 19.2 25.6 48 25.6 73.6l-51.2 480zM505.6 736c60.8 0 108.8-41.6 124.8-96H384c12.8 54.4 60.8 96 121.6 96zM188.8 329.6H192c16 0 28.8 12.8 32 28.8v12.8c3.2 16-9.6 32-28.8 35.2-19.2 3.2-32-9.6-35.2-28.8v-12.8c-3.2-19.2 9.6-35.2 28.8-35.2zM604.8 268.8c-16-38.4-54.4-64-99.2-64-41.6 0-80 25.6-99.2 64-6.4 16-25.6 22.4-41.6 16-16-6.4-22.4-25.6-16-41.6 28.8-64 89.6-102.4 156.8-102.4s131.2 41.6 156.8 102.4c6.4 16 0 35.2-16 41.6-16 6.4-35.2 0-41.6-16zM345.6 352m-32 0a32 32 0 1 1 64 0 32 32 0 1 1-64 0ZM665.6 352m-32 0a32 32 0 1 1 64 0 32 32 0 1 1-64 0Z"  horiz-adv-x="1024" />

    
    <glyph glyph-name="shaixuan-queding" unicode="&#58982;" d="M601.868531-128c-23.272727 0-38.787879 15.515152-38.787878 38.787879V360.72727299999997c0 31.030303 15.515152 54.30303 31.030303 77.575757l294.787878 279.272728s7.757576 7.757576 7.757576 15.515151v38.787879c0 15.515152-7.757576 31.030303-31.030303 31.030303H144.171562c-15.515152 0-31.030303-15.515152-31.030303-31.030303v-38.787879c0-7.757576 0-15.515152 7.757575-15.515151l294.787879-271.515152c23.272727-23.272727 38.787879-54.30303 38.787879-77.575758V27.151515000000018c0-7.757576 7.757576-15.515152 7.757576-23.272727 15.515152-7.757576 23.272727-31.030303 15.515151-54.30303-7.757576-15.515152-31.030303-23.272727-54.30303-15.515152-31.030303 15.515152-54.30303 54.30303-54.30303 93.090909V368.48484800000006c0 7.757576-7.757576 15.515152-7.757576 23.272728L66.595804 671.030303c-23.272727 23.272727-31.030303 46.545455-31.030303 77.575758v38.787878C35.565501 849.454545 82.110956 896 144.171562 896h721.454545c62.060606 0 108.606061-46.545455 108.606061-108.606061v-38.787878c0-23.272727-7.757576-46.545455-23.272727-69.818182L648.413986 399.515152c-7.757576-7.757576-7.757576-15.515152-7.757576-23.272728v-449.939394c0-38.787879-23.272727-54.30303-38.787879-54.30303"  horiz-adv-x="1024" />

    
    <glyph glyph-name="tuwenxiangqing" unicode="&#58981;" d="M943.108257 896C1017.371296 896 1077.838009 835.533288 1077.838009 761.270249v-754.486606c0-74.316931-60.466712-134.729751-134.729752-134.729751h-144.807536a26.892058 26.892058 0 1 0 0 53.8919H943.108257c44.568602 0 80.837851 36.215357 80.837851 80.837851v259.112257l-227.962739 254.208095-416.207147-559.77517a26.838166 26.838166 0 0 0-37.670438-5.496974 26.94595 26.94595 0 0 0-5.550866 37.72433l80.945635 108.861639-153.807484 153.753592-208.938898-256.956581C59.065523-42.311878 93.071312-74.054208 134.729751-74.054208H592.810905a26.94595 26.94595 0 0 0 0-53.8919H134.729751a134.729751 134.729751 0 0 0-134.4064 131.280669l-0.107783 1.347298c0 0.700595-0.215568 1.401189-0.215568 2.101784v754.486606C0 835.533288 60.466712 896 134.729751 896h808.378506z m-129.017209-315.375401L1023.946108 346.625967V761.270249c0 44.568602-36.269249 80.837851-80.837851 80.837851h-808.378506C90.161149 842.1081 53.8919 805.838851 53.8919 761.270249v-678.660702l186.789327 229.687279a26.838166 26.838166 0 0 0 19.508868 9.91611 25.760328 25.760328 0 0 0 20.478922-7.814325l169.328352-169.27446 322.43524 433.614231a26.892058 26.892058 0 0 0 20.371138 10.77838 25.005842 25.005842 0 0 0 21.287301-8.892163zM350.297353 680.432398C424.560392 680.432398 485.027104 620.019578 485.027104 545.702647 485.027104 471.331825 424.560392 410.972896 350.297353 410.972896A134.891427 134.891427 0 0 0 215.567602 545.702647C215.567602 620.019578 276.034314 680.432398 350.297353 680.432398z m0-215.567601C394.865954 464.864797 431.135203 501.134046 431.135203 545.702647S394.865954 626.540498 350.297353 626.540498 269.459502 590.271249 269.459502 545.702647 305.728751 464.864797 350.297353 464.864797z"  horiz-adv-x="1077" />

    
    <glyph glyph-name="sanjiaojiantou" unicode="&#59689;" d="M177.837-128L170.67 896l682.661-503.889L177.837-128z"  horiz-adv-x="1024" />

    
    <glyph glyph-name="sousuo-shanchu" unicode="&#58980;" d="M511.914667 414.250667L376.149333 549.973333a21.333333 21.333333 0 1 1-30.165333-30.165333l135.765333-135.765333L346.026667 248.32a21.333333 21.333333 0 0 1 30.165333-30.165333l135.765333 135.765333 135.765334-135.765333a21.333333 21.333333 0 0 1 30.165333 30.165333l-135.765333 135.765333 135.765333 135.765334a21.333333 21.333333 0 0 1-30.165333 30.165333l-135.765334-135.765333zM512 896c282.752 0 512-229.248 512-512s-229.248-512-512-512S0 101.248 0 384 229.248 896 512 896z"  horiz-adv-x="1024" />

    
    <glyph glyph-name="zhushishuoming" unicode="&#58979;" d="M512 896a512 512 0 1 0 0-1024 512 512 0 0 0 0 1024z m17.408-165.021538c-73.491692 0-131.150769-20.48-173.843692-61.44-43.716923-40.881231-64.590769-97.358769-64.59077-169.432616h113.270154c0 41.905231 7.876923 74.043077 24.812308 96.413539 19.849846 26.308923 50.648615 38.990769 93.420308 38.990769 33.792 0 60.652308-8.743385 79.478154-27.254154 17.880615-18.510769 27.805538-43.874462 27.805538-76.012308 0-24.418462-8.979692-47.734154-26.781538-69.159384l-11.972924-13.627077c-64.590769-56.477538-103.345231-97.437538-116.263384-123.667693-13.863385-26.308923-19.849846-58.525538-19.849846-95.547076v-13.627077h114.215384v13.627077a139.421538 139.421538 0 0 0 54.665846 112.088615c47.734154 40.881231 76.484923 67.190154 85.464616 76.957538 23.867077 31.113846 36.785231 71.049846 36.785231 119.729231 0 59.470769-19.928615 106.259692-59.628308 140.288-39.778462 35.131077-92.396308 51.672615-156.987077 51.672616z m-17.880615-562.097231a73.412923 73.412923 0 0 1-53.641847-20.48c-15.911385-13.548308-22.843077-31.113846-22.843076-52.539077s6.931692-38.990769 22.843076-52.617846a74.121846 74.121846 0 0 1 53.641847-21.425231c21.897846 0 39.778462 6.852923 55.611077 20.48a73.491692 73.491692 0 0 1 21.897846 53.563077c0 21.425231-7.955692 38.990769-21.897846 52.617846a79.872 79.872 0 0 1-55.611077 20.48z"  horiz-adv-x="1024" />

    
    <glyph glyph-name="fenxiang1" unicode="&#59217;" d="M203.264 15.36c-32.256 0-58.368 26.112-58.368 58.368V635.392c0 32.256 26.112 58.368 58.368 58.368h261.632c15.872 0 29.184-12.8 29.184-29.184 0-15.872-12.8-29.184-29.184-29.184H242.176c-21.504 0-38.912-17.408-38.912-38.912v-484.352c0-21.504 17.408-38.912 38.912-38.912h523.264c21.504 0 38.912 17.408 38.912 38.912v125.952c0 15.872 12.8 29.184 29.184 29.184 15.872 0 29.184-12.8 29.184-29.184v-164.864c0-32.256-26.112-58.368-58.368-58.368H203.264v0.512zM347.136 278.016l4.096 11.776c69.12 190.464 251.904 324.096 444.928 324.096h8.192l-89.6 89.6c-5.632 5.632-8.704 12.8-8.704 20.48s3.072 14.848 8.704 20.48 12.8 8.704 20.48 8.704 14.848-3.072 20.48-8.704l156.672-156.672c7.168-7.168 10.24-17.408 7.68-27.648-1.536-5.632-4.608-10.24-8.192-14.336l-1.024-1.024-3.584-1.536-151.04-151.552c-5.632-5.632-12.8-8.192-20.48-8.192s-14.848 3.072-20.48 8.192c-5.632 5.632-8.192 12.8-8.192 20.48s3.072 14.848 8.192 20.48l119.808 119.808-7.168 0.512c-9.216 1.024-18.944 1.024-28.16 1.024-163.328 0-332.8-123.904-394.24-288.256-2.56-7.68-11.264-11.264-18.944-7.68l-39.424 19.968z"  horiz-adv-x="1024" />

    
    <glyph glyph-name="lijiyuyue" unicode="&#58977;" d="M792.252632 405.557895c-134.736842 0-242.526316-107.789474-242.526316-242.526316s107.789474-242.526316 242.526316-242.526316 242.526316 107.789474 242.526315 242.526316-107.789474 242.526316-242.526315 242.526316z m0-436.547369c-102.4 0-188.631579 86.231579-188.631579 188.631579s86.231579 188.631579 188.631579 188.631579 188.631579-86.231579 188.631579-188.631579-86.231579-188.631579-188.631579-188.631579zM463.494737 39.073684h-317.978948c-10.778947 0-32.336842 0-37.726315 10.778948-5.389474 5.389474-10.778947 16.168421-5.389474 37.726315v420.378948h808.421053c16.168421 0 26.947368 10.778947 26.947368 26.947368v161.684211 5.389473c-5.389474 21.557895-10.778947 37.726316-16.168421 43.11579-16.168421 26.947368-43.115789 37.726316-64.673684 37.726316h-145.51579v80.842105c0 16.168421-10.778947 26.947368-26.947368 26.947368s-26.947368-10.778947-26.947369-26.947368v-80.842105h-280.252631v80.842105c0 16.168421-10.778947 26.947368-26.947369 26.947368s-26.947368-10.778947-26.947368-26.947368v-80.842105h-194.021053c-70.063158-10.778947-80.842105-59.284211-80.842105-86.231579v-609.010527c0-32.336842 5.389474-53.894737 21.557895-75.452631 16.168421-16.168421 43.115789-26.947368 80.842105-26.947369h317.978948c16.168421 0 26.947368 10.778947 26.947368 26.947369s-16.168421 26.947368-32.336842 26.947368z m-366.484211 657.51579c0 16.168421 5.389474 26.947368 32.336842 32.336842h188.631579v-102.4c0-16.168421 10.778947-26.947368 26.947369-26.947369s26.947368 10.778947 26.947368 26.947369V728.926316h280.252632v-102.4c0-16.168421 10.778947-26.947368 26.947368-26.947369s26.947368 10.778947 26.947369 26.947369V728.926316h145.515789s10.778947 0 21.557895-10.778948c0 0 5.389474-5.389474 10.778947-26.947368v-134.736842h-781.473684v140.126316zM414.989474 378.610526h-237.136842c-16.168421 0-26.947368-10.778947-26.947369-26.947368s10.778947-26.947368 26.947369-26.947369h237.136842c16.168421 0 26.947368 10.778947 26.947368 26.947369s-10.778947 26.947368-26.947368 26.947368zM414.989474 233.094737h-237.136842c-16.168421 0-26.947368-10.778947-26.947369-26.947369s10.778947-26.947368 26.947369-26.947368h237.136842c16.168421 0 26.947368 10.778947 26.947368 26.947368s-10.778947 26.947368-26.947368 26.947369zM846.147368 152.252632h-59.28421v59.28421c0 16.168421-10.778947 26.947368-26.947369 26.947369s-26.947368-10.778947-26.947368-26.947369v-86.231579c0-16.168421 10.778947-26.947368 26.947368-26.947368h86.231579c16.168421 0 26.947368 10.778947 26.947369 26.947368s-16.168421 26.947368-26.947369 26.947369z"  horiz-adv-x="1077" />

    
    <glyph glyph-name="lianximaijia" unicode="&#58978;" d="M943.581152 188.314136c-21.445026 16.08377-144.753927 101.863874-193.005236 85.780105-48.251309-16.08377-53.612565-26.806283-91.141361-107.225131-166.198953 58.973822-273.424084 160.837696-321.675393 316.314136 80.418848 16.08377 123.308901 48.251309 123.308901 101.863874 0 64.335079-96.502618 225.172775-171.56021 268.062828-32.167539 21.445026-58.973822 16.08377-75.057591 10.722513-80.418848-37.528796-198.366492-166.198953-160.837697-337.759163 37.528796-176.921466 375.287958-546.848168 611.183247-632.628272 48.251309-16.08377 91.141361-21.445026 128.670157-21.445026 69.696335 0 123.308901 21.445026 155.476439 48.251309 69.696335 48.251309 101.863874 117.947644 101.863875 150.115183-10.722513 16.08377-10.722513 48.251309-107.225131 117.947644z m-32.167539-219.811518c-42.890052-32.167539-117.947644-58.973822-235.895288-16.08377-235.895288 85.780105-546.848168 444.984293-579.015707 595.099477-32.167539 155.47644 85.780105 251.979058 128.670157 278.78534h5.361256c5.361257 0 10.722513 0 21.445027-5.361257 64.335079-42.890052 144.753927-187.643979 144.753926-225.172774 0-32.167539-64.335079-48.251309-107.225131-53.612566-5.361257 0-16.08377-5.361257-16.083769-10.722513-5.361257-5.361257-5.361257-16.08377-5.361257-21.445026 53.612565-198.366492 182.282723-327.036649 386.010471-391.371728 10.722513-5.361257 26.806283 0 32.16754 16.08377l10.722513 21.445026c37.528796 75.057592 37.528796 75.057592 58.973822 80.418848 37.528796 0 214.450262-117.947644 225.172775-150.115183 5.361257-26.806283-16.08377-80.418848-69.696335-117.947644zM868.52356 778.052356c-112.586387 75.057592-230.534031 85.780105-343.120419 42.890052-16.08377-5.361257-21.445026-21.445026-16.083769-32.167539s21.445026-21.445026 32.167539-16.08377c96.502618 37.528796 193.005236 26.806283 294.86911-37.528795s155.47644-155.47644 171.560209-273.424084c0-16.08377 10.722513-21.445026 26.806283-21.445026h5.361257c16.08377 0 26.806283 16.08377 21.445026 32.167539-16.08377 128.670157-80.418848 230.534031-193.005236 305.591623zM841.717277 434.931937c0-16.08377 10.722513-21.445026 26.806283-21.445026h5.361257c16.08377 0 26.806283 16.08377 21.445026 32.167539-10.722513 85.780105-53.612565 150.115183-123.308901 198.366492-69.696335 48.251309-144.753927 53.612565-219.811518 26.806283-16.08377-5.361257-21.445026-21.445026-16.08377-32.167539 5.361257-16.08377 21.445026-21.445026 32.16754-16.08377 58.973822 21.445026 112.586387 16.08377 171.560209-21.445026 58.973822-48.251309 91.141361-101.863874 101.863874-166.198953zM680.879581 504.628272c-37.528796 26.806283-80.418848 32.167539-123.3089 16.08377-16.08377-5.361257-21.445026-21.445026-16.08377-32.167539 5.361257-16.08377 21.445026-21.445026 32.167539-16.08377 26.806283 10.722513 48.251309 5.361257 75.057592-10.722513 26.806283-16.08377 37.528796-37.528796 42.890052-69.696335 0-16.08377 10.722513-21.445026 26.806283-21.445026h5.361257c16.08377 0 26.806283 16.08377 21.445026 32.167539-5.361257 37.528796-26.806283 75.057592-64.335079 101.863874z"  horiz-adv-x="1072" />

    
    <glyph glyph-name="zhaopian" unicode="&#58975;" d="M1048.376413-128H73.140454c-40.33015 0-73.140454 32.810304-73.140454 73.140454V822.853938c0 40.33015 32.810304 73.140454 73.140454 73.140454h975.235959c40.33015 0 73.146062-32.810304 73.146061-73.140454V-54.859546c0-40.33015-32.815912-73.140454-73.146061-73.140454zM73.140454 847.235959a24.415666 24.415666 0 0 1-24.382021-24.382021V-54.859546a24.410059 24.410059 0 0 1 24.382021-24.382021h975.235959a24.398843 24.398843 0 0 1 24.38202 24.382021V822.853938a24.404451 24.404451 0 0 1-24.38202 24.382021H73.140454zM24.382021-6.089897a24.376413 24.376413 0 0 0-17.237887 41.614299l228.595461 228.595461c17.333217 17.383685 45.03496 19.094016 64.40375 3.998248L485.593621 123.878384 793.711031 432.001402c19.004293 18.998686 49.952861 18.98747 68.951547 0.011215l252.455971-275.346359a24.387628 24.387628 0 0 0-35.95619-32.950495L828.169982 397.514413 520.069395 89.408219c-17.355647-17.361255-45.085429-19.071585-64.403751-4.003856l-185.450276 144.239727-228.595461-228.595461a24.303514 24.303514 0 0 0-17.237886-7.138526zM316.949444 432.764041c-80.665907 0-146.286515 65.620608-146.286516 146.280908 0 80.665907 65.620608 146.286515 146.286516 146.286515S463.235959 659.710856 463.235959 579.044949 397.620959 432.764041 316.949444 432.764041z m0 243.803382c-53.771664 0-97.522474-43.75081-97.522475-97.522474s43.75081-97.522474 97.522475-97.522475S414.477526 525.273285 414.477526 579.044949s-43.75081 97.522474-97.528082 97.522474z"  horiz-adv-x="1121" />

    
    <glyph glyph-name="chabei" unicode="&#58976;" d="M113.116279-128h607.255814v47.627907H113.116279zM654.883721 586.418605v-357.209303c0-138.12093-111.925581-250.046512-250.046512-250.046511s-250.046512 111.949395-250.046511 250.117953V586.418605h500.093023z m47.627907 47.627907H107.162791v-404.765768C107.162791 64.809674 240.425674-68.465116 404.837209-68.465116c164.423442 0 297.674419 133.262884 297.674419 297.674418V634.046512zM250.046512 891.796837v-183.153116h47.627907V891.796837zM381.023256 891.796837v-183.153116h47.627907V891.796837zM512 891.796837v-183.153116h47.627907V891.796837zM671.243907 144.288744c19.456-6.810791 40.019349-10.335256 61.035163-10.335256 101.923721 0 184.55814 82.634419 184.558139 184.55814C916.837209 420.435349 834.202791 503.069767 732.27907 503.069767c-21.539721 0-42.603163-3.691163-62.475907-10.847255l16.122046-44.817861A136.644465 136.644465 0 0 0 732.27907 455.44186c75.621209 0 136.930233-61.309023 136.930232-136.930232S807.900279 181.581395 732.27907 181.581395c-15.63386 0-30.874791 2.619535-45.29414 7.656186l-15.741023-44.948837z"  horiz-adv-x="1024" />

    
    <glyph glyph-name="bibeigongju-fujindedian" unicode="&#58967;" d="M618.574769 19.692308h118.153846v236.307692h-118.153846v-236.307692z m346.308923 430.907077c-1.024-56.280615-48.009846-102.951385-108.228923-111.537231l0.708923-339.022769a19.692308 19.692308 0 0 0-19.692307-19.731693H187.037538a19.692308 19.692308 0 0 0-19.692307 19.692308v238.788923a19.692308 19.692308 0 0 0 39.384615 0v-219.096615h372.460308v256a19.692308 19.692308 0 0 0 19.692308 19.692307h157.538461a19.692308 19.692308 0 0 0 19.692308-19.692307v-256h41.826461l-0.669538 319.842461c-36.706462 5.159385-69.12 23.512615-88.654769 51.593846-23.000615-33.043692-63.448615-53.878154-108.307693-53.878153s-85.307077 20.834462-108.307692 53.878153c-23.04-33.043692-63.488-53.878154-108.347077-53.878153-44.859077 0-85.267692 20.834462-108.268308 53.878153-23.04-33.043692-63.488-53.878154-108.347077-53.878153-69.474462 0-126.857846 51.003077-127.960615 113.742769a34.894769 34.894769 0 0 0 2.796308 12.288l99.564307 198.971077A83.771077 83.771077 0 0 0 236.898462 708.923077h550.163692c32.216615 0 61.124923-17.880615 75.460923-46.670769l99.643077-199.128616a34.225231 34.225231 0 0 0 2.717538-12.524307z m-484.194461-336.699077h-196.923077a19.692308 19.692308 0 0 0-19.692308 19.692307v137.846154a19.692308 19.692308 0 0 0 19.692308 19.692308h196.923077a19.692308 19.692308 0 0 0 19.692307-19.692308v-137.846154a19.692308 19.692308 0 0 0-19.692307-19.692307zM236.898462 748.307692a19.692308 19.692308 0 0 0 0 39.384616h550.203076a19.692308 19.692308 0 0 0 0-39.384616H236.937846z m600.024615-371.672615c46.907077 0 85.858462 31.980308 88.457846 71.955692l-98.067692 196.056616v0.039384a44.740923 44.740923 0 0 1-40.251077 24.851693H236.898462c-17.171692 0-32.571077-9.531077-40.251077-24.851693l-98.028308-196.056615c2.756923-40.172308 41.668923-71.995077 88.418461-71.995077 39.148308 0 73.176615 21.661538 84.716308 53.878154 7.325538 20.322462 39.896615 20.204308 47.222154 0.039384 11.342769-31.783385 46.158769-53.917538 84.676923-53.917538 39.148308 0 73.176615 21.661538 84.716308 53.878154 7.325538 20.322462 39.896615 20.204308 47.222154 0.039384 11.539692-32.256 45.568-53.917538 84.716307-53.917538 38.518154 0 73.334154 22.134154 84.676923 53.878154a24.969846 24.969846 0 0 0 23.591385 16.699077c10.712615 0 19.968-6.577231 23.630769-16.659693 11.539692-32.256 45.568-53.917538 84.716308-53.917538zM303.458462 153.284923h157.538461v98.461539h-157.538461v-98.461539z"  horiz-adv-x="1024" />

    
    <glyph glyph-name="bibeigongju-tuijianyoujiang" unicode="&#58968;" d="M925.538462 462.769231c0-32.571077-26.505846-59.076923-59.076924-59.076923h-256v157.538461H866.461538c32.571077 0 59.076923-26.505846 59.076924-59.076923v-39.384615z m-472.615385-452.923077v551.384615h118.153846v-551.384615h-118.153846z m-275.692308 59.076923v295.384615h236.307693v-354.461538H246.153846c-38.006154 0-68.923077 26.505846-68.923077 59.076923zM157.538462 403.692308c-32.571077 0-59.076923 26.505846-59.076924 59.076923v39.384615c0 32.571077 26.505846 59.076923 59.076924 59.076923h256v-157.538461H157.538462z m137.846153 277.897846c0 21.425231 6.695385 40.684308 18.944 54.311384 13.272615 14.769231 33.004308 22.252308 58.761847 22.252308 26.820923 0 47.300923-7.995077 64.393846-25.166769 33.201231-33.437538 46.828308-93.774769 52.342154-132.371692H373.090462C297.550769 600.615385 295.384615 673.319385 295.384615 681.590154z m291.091693 51.357538c17.132308 17.211077 37.572923 25.206154 64.43323 25.206154 25.718154 0 45.489231-7.483077 58.761847-22.252308 12.209231-13.587692 18.944-32.886154 18.944-54.311384 0-8.270769-2.205538-80.974769-77.705847-80.974769h-116.775384c5.513846 38.596923 19.140923 98.894769 52.342154 132.332307zM866.461538 600.615385h-126.227692c18.747077 22.724923 27.766154 52.381538 27.766154 80.974769 0 31.153231-10.318769 59.785846-29.026462 80.620308-21.070769 23.433846-50.688 35.328-88.064 35.328-36.982154 0-68.056615-12.366769-92.356923-36.824616-21.897846-22.055385-36.509538-51.751385-46.552615-81.880615-10.082462 30.129231-24.694154 59.825231-46.592 81.880615-24.300308 24.457846-55.374769 36.824615-92.317538 36.824616-37.415385 0-67.032615-11.894154-88.064-35.328-18.747077-20.834462-29.026462-49.467077-29.026462-80.620308 0-28.593231 8.979692-58.249846 27.726769-80.974769H157.538462A98.579692 98.579692 0 0 1 59.076923 502.153846v-39.384615c0-47.537231 33.870769-87.315692 78.769231-96.452923V68.923077c0-54.272 48.561231-98.461538 108.307692-98.461539h531.692308c59.746462 0 108.307692 44.189538 108.307692 98.461539v207.596308a19.692308 19.692308 0 0 1-39.384615 0V68.923077c0-32.571077-30.916923-59.076923-68.923077-59.076923H610.461538v354.461538H866.461538c54.272 0 98.461538 44.189538 98.461539 98.461539v39.384615c0 54.272-44.189538 98.461538-98.461539 98.461539z"  horiz-adv-x="1024" />

    
    <glyph glyph-name="bibeigongju-shouhuodizhi" unicode="&#58969;" d="M969.885538 140.642462c19.534769-39.936 19.810462-83.731692 0.630154-113.939693-17.486769-24.260923-42.574769-36.548923-73.255384-36.548923H89.166769c-32.177231 0-58.919385 13.390769-73.412923 36.745846-20.519385 28.632615-21.149538 72.782769-0.905846 114.057846l118.744615 255.56677c20.401231 39.542154 59.785846 64 105.668923 66.205538h5.435077c-5.356308 19.968-8.310154 38.281846-8.310153 54.547692 0 143.517538 114.727385 260.411077 255.724307 260.568616h0.551385a250.604308 250.604308 0 0 0 153.993846-52.775385 19.692308 19.692308 0 0 0-24.024615-31.192615A211.849846 211.849846 0 0 1 492.622769 738.461538h-0.512c-119.335385-0.118154-216.339692-99.367385-216.339692-221.184 0-50.845538 34.816-130.441846 100.706461-230.006153a1679.556923 1679.556923 0 0 1 94.483693-128.59077 27.569231 27.569231 0 0 1 21.622154-10.988307 26.781538 26.781538 0 0 1 20.873846 10.555077 1688.930462 1688.930462 0 0 1 94.838154 129.024c41.275077 62.385231 70.340923 116.893538 86.252307 161.437538l0.157539 0.275692c9.452308 26.427077 14.296615 49.348923 14.296615 68.292923 0 30.404923-5.947077 59.825231-17.723077 87.433847a19.692308 19.692308 0 0 0 36.312616 15.399384c13.784615-32.531692 20.795077-67.111385 20.795077-102.833231 0-16.738462-3.150769-35.682462-8.861539-56.359384h4.804923a122.486154 122.486154 0 0 0 105.944616-63.251692l119.611076-257.024z m-31.940923-91.844924c11.027692 17.447385 9.846154 47.222154-3.623384 74.870154l-119.138462 256.236308a82.313846 82.313846 0 0 1-70.892307 41.629538h-18.156308c-17.762462-44.898462-45.883077-96.846769-84.992-156.002461a1707.756308 1707.756308 0 0 0-96.886154-131.780923 65.890462 65.890462 0 0 0-51.593846-25.442462 66.875077 66.875077 0 0 0-52.539077 25.836308 1720.595692 1720.595692 0 0 0-96.492308 131.347692C304.009846 325.474462 275.652923 378.052923 257.969231 423.384615h-17.723077c-30.759385-1.536-57.737846-18.038154-71.286154-44.189538l-118.547692-255.172923c-13.824-28.238769-14.454154-57.659077-1.851077-75.303385 10.515692-16.856615 29.932308-19.180308 40.644923-19.180307h808.093538c18.235077 0 31.192615 6.104615 40.684308 19.259076zM370.530462 518.144A121.974154 121.974154 0 0 0 492.347077 640a122.013538 122.013538 0 0 0 121.856-121.856 122.013538 122.013538 0 0 0-121.856-121.856 121.974154 121.974154 0 0 0-121.816615 121.856z m204.288 0A82.589538 82.589538 0 0 1 492.347077 600.615385c-45.449846 0-82.432-37.021538-82.432-82.471385s37.021538-82.471385 82.432-82.471385c45.489231 0 82.471385 37.021538 82.471385 82.471385z"  horiz-adv-x="1024" />

    
    <glyph glyph-name="bibeigongju-wodeziliao-copy" unicode="&#59514;" d="M590.769231 561.230769a216.851692 216.851692 0 0 0-214.843077-216.536615c-0.590769 0-1.142154-0.354462-1.772308-0.354462-162.894769 0-295.384615-132.489846-295.384615-295.384615 0-12.406154 0.748308-24.654769 2.244923-36.627692a19.692308 19.692308 0 1 0-39.069539-4.923077A336.738462 336.738462 0 0 0 39.384615 48.95507699999996c0 150.173538 99.367385 277.504 235.795693 319.803077A216.733538 216.733538 0 0 0 157.538462 561.230769C157.538462 680.684308 254.700308 777.846154 374.153846 777.846154S590.769231 680.684308 590.769231 561.230769zM374.153846 384c97.713231 0 177.230769 79.556923 177.230769 177.230769C551.384615 658.944 471.867077 738.461538 374.153846 738.461538A177.427692 177.427692 0 0 1 196.923077 561.230769C196.923077 463.556923 276.440615 384 374.153846 384z m219.254154-82.038154a334.769231 334.769231 0 0 0 112.955077-294.518154 19.731692 19.731692 0 0 0-19.534769-17.289846c-0.787692 0-1.575385 0.078769-2.441846 0.157539a19.731692 19.731692 0 0 0-17.132308 21.976615 295.384615 295.384615 0 0 1-99.643077 259.899077 19.731692 19.731692 0 0 0 25.796923 29.774769zM886.153846 777.846154C940.425846 777.846154 984.615385 733.656615 984.615385 679.3846149999999v-590.76923c0-54.272-44.189538-98.461538-98.461539-98.461539H787.692308a19.692308 19.692308 0 0 0 0 39.384616h98.461538c32.571077 0 59.076923 26.505846 59.076923 59.076923v590.76923c0 32.571077-26.505846 59.076923-59.076923 59.076923h-275.692308a19.692308 19.692308 0 0 0 0 39.384616h275.692308z m-39.384615-201.846154h-144.423385a19.692308 19.692308 0 0 0 0 39.384615H846.769231a19.692308 19.692308 0 0 0 0-39.384615z m-203.460923-137.846154a19.692308 19.692308 0 0 0 19.692307 19.692308H846.769231a19.692308 19.692308 0 0 0 0-39.384616h-183.768616a19.692308 19.692308 0 0 0-19.692307 19.692308z m223.15323-157.538461a19.692308 19.692308 0 0 0-19.692307-19.692308h-105.038769a19.692308 19.692308 0 0 0 0 39.384615H846.769231a19.692308 19.692308 0 0 0 19.692307-19.692307z"  horiz-adv-x="1024" />

    
    <glyph glyph-name="bibeigongju-wodedianzan" unicode="&#58970;" d="M889.186462 475.254154c13.942154-16.738462 19.534769-38.636308 15.28123-60.022154-9.452308-47.340308-26.348308-118.508308-45.292307-176.324923a1440.886154 1440.886154 0 0 0-73.885539-179.357539A125.243077 125.243077 0 0 0 672.452923-9.846154h-226.461538a19.692308 19.692308 0 0 0 0 39.384616h226.422153c33.240615 0 63.015385 18.235077 77.666462 47.616a1416.388923 1416.388923 0 0 1 71.68 174.00123c18.392615 56.201846 34.816 125.597538 44.110769 171.795693a32.177231 32.177231 0 0 1-7.010461 27.136 33.319385 33.319385 0 0 1-25.875693 12.091077h-238.158769a19.692308 19.692308 0 0 0-18.983384 24.891076c41.747692 152.969846 24.024615 225.398154 1.811692 259.229539-18.353231 28.002462-41.235692 31.586462-42.141539 31.704615-25.993846-0.157538-26.663385-10.712615-27.726769-26.742154a58.643692 58.643692 0 0 0-1.378461-10.870153c-1.575385-115.003077-88.891077-208.738462-141.075693-254.621539a32.295385 32.295385 0 0 1-10.870154-24.260923V9.846154a19.692308 19.692308 0 0 0-39.384615 0V461.469538a72.034462 72.034462 0 0 0 24.182154 53.83877c38.518154 33.792 127.803077 123.628308 127.803077 228.391384 0 2.323692 0.433231 4.608 1.181538 6.774154 0.118154 0.945231 0.157538 2.126769 0.236308 3.387077 1.063385 15.675077 4.174769 63.369846 69.435077 63.369846 3.820308-0.315077 42.574769-5.041231 71.443692-47.458461 37.494154-55.138462 41.117538-145.289846 10.948923-268.209231H832.984615c21.897846 0 42.338462-9.570462 56.201847-26.308923zM233.944615 502.429538c23.000615 0 41.747692-20.637538 41.747693-46.08v-420.155076C275.692308 10.791385 256.945231-9.846154 233.944615-9.846154H168.211692c-33.595077 0-60.928 28.711385-63.566769 66.717539l-25.678769 367.419077c-1.339077 19.298462 4.253538 38.754462 15.478154 53.405538 12.169846 15.753846 29.656615 24.733538 48.088615 24.733538H233.944615zM236.307692 36.194462V456.310154c0 3.859692-1.732923 6.262154-2.56 6.695384H142.532923c-6.222769 0-12.169846-3.308308-16.896-9.373538a39.857231 39.857231 0 0 1-7.364923-26.663385l25.678769-367.419077c1.181538-16.856615 11.815385-30.011077 24.260923-30.011076H233.944615c0.472615 0.315077 2.363077 2.717538 2.363077 6.695384z"  horiz-adv-x="1024" />

    
    <glyph glyph-name="bibeigongju-wodehuiyuanqia" unicode="&#58971;" d="M1004.307692 630.153846a19.692308 19.692308 0 0 0-19.692307 19.692308V679.384615c0 32.571077-26.505846 59.076923-59.076923 59.076923h-827.076924C65.890462 738.461538 39.384615 711.955692 39.384615 679.384615v-551.384615c0-32.571077 26.505846-59.076923 59.076923-59.076923h827.076924c32.571077 0 59.076923 26.505846 59.076923 59.076923V509.518769a19.692308 19.692308 0 0 0 39.384615 0V128c0-54.272-44.150154-98.461538-98.461538-98.461538h-827.076924A98.579692 98.579692 0 0 0 0 128v551.384615C0 733.656615 44.150154 777.846154 98.461538 777.846154h827.076924C979.849846 777.846154 1024 733.656615 1024 679.384615v-29.538461a19.692308 19.692308 0 0 0-19.692308-19.692308zM503.414154 561.230769a19.692308 19.692308 0 0 0 39.384615 0v-315.076923a19.692308 19.692308 0 0 0-39.384615 0v315.076923z m-116.854154 7.089231a19.849846 19.849846 0 0 0 25.442462 11.303385c10.121846-3.938462 15.202462-15.320615 11.342769-25.442462l-120.910769-315.076923a19.613538 19.613538 0 0 0-18.432-12.603077h-0.275693a19.692308 19.692308 0 0 0-18.313846 13.193846l-109.174154 315.076923a19.692308 19.692308 0 0 0 37.257846 12.87877l91.490462-264.073847 101.612308 264.704zM763.707077 580.923077a107.52 107.52 0 0 0 105.117538-107.401846 107.52 107.52 0 0 0-104.763077-107.401846h-103.069538V246.153846a19.692308 19.692308 0 1 0-39.384615 0v315.076923a19.692308 19.692308 0 0 0 19.692307 19.692308h122.407385z m65.732923-107.401846c0 37.494154-30.483692 68.017231-68.017231 68.017231h-100.430769v-136.034462h100.430769c37.533538 0 68.017231 30.523077 68.017231 68.017231z"  horiz-adv-x="1024" />

    
    <glyph glyph-name="bibeigongju-wodeziliao" unicode="&#58972;" d="M590.769231 561.230769a216.851692 216.851692 0 0 0-214.843077-216.536615c-0.590769 0-1.142154-0.354462-1.772308-0.354462-162.894769 0-295.384615-132.489846-295.384615-295.384615 0-12.406154 0.748308-24.654769 2.244923-36.627692a19.692308 19.692308 0 1 0-39.069539-4.923077A336.738462 336.738462 0 0 0 39.384615 48.95507699999996c0 150.173538 99.367385 277.504 235.795693 319.803077A216.733538 216.733538 0 0 0 157.538462 561.230769C157.538462 680.684308 254.700308 777.846154 374.153846 777.846154S590.769231 680.684308 590.769231 561.230769zM374.153846 384c97.713231 0 177.230769 79.556923 177.230769 177.230769C551.384615 658.944 471.867077 738.461538 374.153846 738.461538A177.427692 177.427692 0 0 1 196.923077 561.230769C196.923077 463.556923 276.440615 384 374.153846 384z m219.254154-82.038154a334.769231 334.769231 0 0 0 112.955077-294.518154 19.731692 19.731692 0 0 0-19.534769-17.289846c-0.787692 0-1.575385 0.078769-2.441846 0.157539a19.731692 19.731692 0 0 0-17.132308 21.976615 295.384615 295.384615 0 0 1-99.643077 259.899077 19.731692 19.731692 0 0 0 25.796923 29.774769zM886.153846 777.846154C940.425846 777.846154 984.615385 733.656615 984.615385 679.3846149999999v-590.76923c0-54.272-44.189538-98.461538-98.461539-98.461539H787.692308a19.692308 19.692308 0 0 0 0 39.384616h98.461538c32.571077 0 59.076923 26.505846 59.076923 59.076923v590.76923c0 32.571077-26.505846 59.076923-59.076923 59.076923h-275.692308a19.692308 19.692308 0 0 0 0 39.384616h275.692308z m-39.384615-201.846154h-144.423385a19.692308 19.692308 0 0 0 0 39.384615H846.769231a19.692308 19.692308 0 0 0 0-39.384615z m-203.460923-137.846154a19.692308 19.692308 0 0 0 19.692307 19.692308H846.769231a19.692308 19.692308 0 0 0 0-39.384616h-183.768616a19.692308 19.692308 0 0 0-19.692307 19.692308z m223.15323-157.538461a19.692308 19.692308 0 0 0-19.692307-19.692308h-105.038769a19.692308 19.692308 0 0 0 0 39.384615H846.769231a19.692308 19.692308 0 0 0 19.692307-19.692307z"  horiz-adv-x="1024" />

    
    <glyph glyph-name="bibeigongju-wodetuangou" unicode="&#58973;" d="M905.846154 551.384615l39.305846-391.876923c0.078769-56.241231-44.110769-100.430769-98.382769-100.430769h-43.086769a19.692308 19.692308 0 1 0 0 39.384615H846.769231c32.571077 0 59.076923 26.505846 59.076923 59.076924l-1.181539 11.972923h-114.491077a19.692308 19.692308 0 1 0 0 39.384615h110.513231L866.540308 549.415385C866.461538 583.955692 839.955692 610.461538 807.384615 610.461538h-39.384615v-88.694153a19.692308 19.692308 0 1 0-39.384615 0V610.461538h-118.153847a19.692308 19.692308 0 0 0 0 39.384616h118.153847V659.692308c0 65.142154-53.011692 118.153846-118.153847 118.153846-36.115692 0-69.789538-16.226462-92.356923-44.465231a19.692308 19.692308 0 1 0-30.759384 24.576A156.672 156.672 0 0 0 610.461538 817.230769c86.882462 0 157.538462-70.656 157.538462-157.538461v-9.846154h39.384615c54.272 0 98.461538-44.189538 98.461539-98.461539zM571.076923 541.538462h39.384615c54.272 0 98.461538-44.189538 98.461539-98.461539l39.305846-391.876923C748.307692-5.041231 704.118154-49.230769 649.846154-49.230769h-472.615385A98.579692 98.579692 0 0 0 78.769231 49.230769l14.099692 141.902769a19.810462 19.810462 0 0 0 21.543385 17.644308 19.731692 19.731692 0 0 0 17.644307-21.582769l-8.664615-86.606769h580.371692l-34.146461 340.519384C669.538462 475.648 643.032615 502.153846 610.461538 502.153846h-39.384615v-118.311384c22.882462-8.152615 39.384615-29.814154 39.384615-55.453539 0-32.571077-26.505846-59.076923-59.076923-59.076923s-59.076923 26.505846-59.076923 59.076923c0 25.639385 16.502154 47.300923 39.384616 55.453539V502.153846h-236.307693v-118.311384c22.882462-8.152615 39.384615-29.814154 39.384616-55.453539 0-32.571077-26.505846-59.076923-59.076923-59.076923s-59.076923 26.505846-59.076923 59.076923c0 25.639385 16.502154 47.300923 39.384615 55.453539V502.153846h-39.384615c-32.571077 0-59.076923-26.505846-59.076923-59.076923l-11.539693-116.657231a19.731692 19.731692 0 0 0-39.227077 3.938462l11.460923 114.688C118.153846 497.348923 162.343385 541.538462 216.615385 541.538462h39.384615v9.846153c0 86.882462 70.656 157.538462 157.538462 157.538462s157.538462-70.656 157.538461-157.538462V541.538462z m-275.692308 0h236.307693v9.846153c0 65.142154-53.011692 118.153846-118.153846 118.153847s-118.153846-53.011692-118.153847-118.153847V541.538462zM275.692308 307.2a19.692308 19.692308 0 1 1 0 39.384615 19.692308 19.692308 0 0 1 0-39.384615z m275.692307 0a19.692308 19.692308 0 1 1 0 39.384615 19.692308 19.692308 0 0 1 0-39.384615zM649.846154-9.846154c32.571077 0 59.076923 26.505846 59.076923 59.076923l-1.181539 11.972923H119.453538l-1.378461-13.942154C118.153846 16.659692 144.659692-9.846154 177.230769-9.846154h472.615385z"  horiz-adv-x="1024" />

    
    <glyph glyph-name="bibeigongju-wodeliuyan" unicode="&#58974;" d="M846.769231 738.461538C901.080615 738.461538 945.230769 694.272 945.230769 640v-433.230769c0-54.272-44.150154-98.461538-98.461538-98.461539h-178.924308l-112.364308-112.403692a19.771077 19.771077 0 0 0-27.884307 0l-118.153846 118.153846a19.771077 19.771077 0 0 0 27.884307 27.884308l104.211693-104.251077 104.211692 104.251077A19.849846 19.849846 0 0 0 659.692308 147.692308h187.076923c32.571077 0 59.076923 26.505846 59.076923 59.076923v433.230769c0 32.571077-26.505846 59.076923-59.076923 59.076923h-669.538462C144.659692 699.076923 118.153846 672.571077 118.153846 640v-433.230769c0-32.571077 26.505846-59.076923 59.076923-59.076923h107.086769a19.692308 19.692308 0 0 0 0-39.384616H177.230769A98.579692 98.579692 0 0 0 78.769231 206.769231v433.230769C78.769231 694.272 122.919385 738.461538 177.230769 738.461538h669.538462zM315.076923 482.461538c32.571077 0 59.076923-26.505846 59.076923-59.076923s-26.505846-59.076923-59.076923-59.076923-59.076923 26.505846-59.076923 59.076923 26.505846 59.076923 59.076923 59.076923z m393.846154 0c32.571077 0 59.076923-26.505846 59.076923-59.076923s-26.505846-59.076923-59.076923-59.076923-59.076923 26.505846-59.076923 59.076923 26.505846 59.076923 59.076923 59.076923z m-196.923077 0c32.571077 0 59.076923-26.505846 59.076923-59.076923s-26.505846-59.076923-59.076923-59.076923-59.076923 26.505846-59.076923 59.076923 26.505846 59.076923 59.076923 59.076923z m-196.923077-78.76923a19.692308 19.692308 0 1 1-0.078769 39.463384A19.692308 19.692308 0 0 1 315.076923 403.692308z m196.923077 0a19.692308 19.692308 0 1 1 0 39.384615 19.692308 19.692308 0 0 1 0-39.384615z m196.923077 0a19.692308 19.692308 0 1 1 0 39.384615 19.692308 19.692308 0 0 1 0-39.384615z"  horiz-adv-x="1024" />

    
    <glyph glyph-name="shangchuantupian" unicode="&#58966;" d="M279.524324 309.275676c0-130.075676 107.935135-238.010811 238.010811-238.010811 132.843243 0 238.010811 107.935135 238.010811 238.010811 0 130.075676-107.935135 238.010811-238.010811 238.01081-132.843243 0-238.010811-107.935135-238.010811-238.01081z m238.010811 157.751351c88.562162 0 160.518919-71.956757 160.518919-157.751351 0-88.562162-71.956757-157.751351-160.518919-157.751352-88.562162 0-160.518919 71.956757-160.518919 157.751352 2.767568 85.794595 71.956757 157.751351 160.518919 157.751351zM318.27027 815.740541h160.518919c22.140541 0 38.745946 16.605405 38.745946 38.745945S500.92973 896 478.789189 896h-160.518919c-22.140541 0-38.745946-16.605405-38.745946-38.745946s16.605405-41.513514 38.745946-41.513513zM988.021622 738.248649H556.281081c-22.140541 0-38.745946-16.605405-38.745946-38.745946 0-22.140541 16.605405-38.745946 38.745946-38.745946h428.972973c22.140541 0 38.745946-16.605405 38.745946-38.745946v-631.005406c0-22.140541-16.605405-38.745946-38.745946-38.745946H119.005405c-22.140541 0-38.745946 16.605405-38.745946 38.745946V619.243243c0 22.140541 16.605405 38.745946 38.745946 38.745946h119.005406c22.140541 0 38.745946 16.605405 38.745946 38.745946s-16.605405 41.513514-38.745946 41.513514H119.005405C52.583784 738.248649 0 685.664865 0 619.243243v-628.237838C0-75.416216 52.583784-128 119.005405-128h869.016217c63.654054 0 116.237838 52.583784 116.237837 116.237838L1107.027027 619.243243c0 66.421622-52.583784 119.005405-119.005405 119.005406zM866.248649 566.659459a60.886486 60.886486 0 1 1 121.772973 0 60.886486 60.886486 0 1 1-121.772973 0Z"  horiz-adv-x="1107" />

    
    <glyph glyph-name="wodeliuyan" unicode="&#58965;" d="M1050.943497 896C1125.264065 896 1185.679842 835.530328 1185.679842 761.263654v-592.839921c0-74.266674-60.415777-134.736346-134.736345-134.736346h-244.842888l-153.761118-153.815012a27.055058 27.055058 0 0 0-38.157333 0l-161.683615 161.683615a27.055058 27.055058 0 0 0 38.157334 38.157333l142.604948-142.658843 142.604948 142.658843A27.162847 27.162847 0 0 0 794.94444 87.581926h255.999057c44.570783 0 80.841807 36.271024 80.841807 80.841807v592.839921c0 44.570783-36.271024 80.841807-80.841807 80.841808h-916.207151C90.165563 842.105462 53.894538 805.834437 53.894538 761.263654v-592.839921c0-44.570783 36.271024-80.841807 80.841808-80.841807h146.539249a26.947269 26.947269 0 0 0 0-53.894539H134.736346A134.898029 134.898029 0 0 0 0 168.423733v592.839921C0 835.530328 60.415777 896 134.736346 896h916.207151zM862.312613 384.001886c-44.570783 0-80.841807 36.271024-80.841808 80.841808s36.271024 80.841807 80.841808 80.841807 80.841807-36.271024 80.841807-80.841807-36.271024-80.841807-80.841807-80.841808zM673.681729 464.843694c0-44.570783-36.271024-80.841807-80.841808-80.841808S511.998114 420.272911 511.998114 464.843694s36.271024 80.841807 80.841807 80.841807 80.841807-36.271024 80.841808-80.841807zM323.36723 545.685501c44.570783 0 80.841807-36.271024 80.841807-80.841807S367.938013 384.001886 323.36723 384.001886 242.525422 420.272911 242.525422 464.843694 278.796447 545.685501 323.36723 545.685501z m0-107.789076a26.947269 26.947269 0 1 1-0.107789 54.002327A26.947269 26.947269 0 0 1 323.36723 437.896425z m538.945383 53.894538a26.947269 26.947269 0 1 1 0.107789-54.002327A26.947269 26.947269 0 0 1 862.312613 491.790963z m-296.419961-26.947269a26.947269 26.947269 0 1 1 54.002327 0.107789A26.947269 26.947269 0 0 1 565.892652 464.843694z"  horiz-adv-x="1185" />

    
    <glyph glyph-name="wodedianzan" unicode="&#58964;" d="M1003.369892 472.601994c17.261649-20.723731 24.185813-47.835246 18.919547-74.31286-11.702813-58.611586-32.62159-146.724012-56.075977-218.306216a1783.94749 1783.94749 0 0 0-91.476985-222.060868A155.062266 155.062266 0 0 0 735.034152-127.996099h-280.379884a24.38086 24.38086 0 0 0 0 48.761719h280.331123c41.154891 0 78.01875 22.576676 96.158109 58.952918a1753.617701 1753.617701 0 0 1 88.746329 215.429275c22.771723 69.582973 43.10536 155.501122 54.613125 212.698618a39.838324 39.838324 0 0 1-8.679586 33.596824 41.252414 41.252414 0 0 1-32.036449 14.969848h-294.862115a24.38086 24.38086 0 0 0-23.503148 30.817407c51.687422 189.390517 29.744649 279.063318 2.243039 320.949634-22.722961 34.669582-51.05352 39.106899-52.17504 39.253184-32.182735-0.195047-33.011684-13.263188-34.32825-33.109207a72.6062 72.6062 0 0 0-1.70666-13.458235c-1.950469-142.384219-110.0552-258.437111-174.664478-315.244513A39.98461 39.98461 0 0 1 341.332033 455.584154V-103.61524a24.38086 24.38086 0 0 0-48.761719 0V455.535392a89.185184 89.185184 0 0 0 29.939695 66.65727c47.688961 41.837555 158.231778 153.063036 158.231779 282.769209 0 2.876941 0.536379 5.705121 1.462851 8.387015 0.146285 1.170281 0.195047 2.633133 0.292571 4.193508C483.813776 836.949558 487.665952 896 568.46412 896c4.729887-0.390094 52.711418-6.2415 88.453758-58.757871 46.421156-68.266407 50.907235-179.881981 13.555758-332.067307H933.786919c27.111516 0 52.418848-11.849098 69.582973-32.572828zM192.121173 506.24758c28.476844 0 51.687422-25.551141 51.687422-57.051211v-520.190019C243.808595-102.444958 220.598017-127.996099 192.121173-127.996099H110.737864c-41.593746 0-75.434379 35.547293-78.701415 82.602352L0.243809 409.50433c-1.657898 23.893242 5.266266 47.981531 19.163355 66.12089 15.067371 19.504688 36.717574 30.62236 59.538059 30.62236H192.121173zM195.046876-70.944888V449.098845c0 4.778648-2.145516 7.753113-3.169512 8.289493H78.945223c-7.704352 0-15.067371-4.095984-20.918777-11.60529a49.34686 49.34686 0 0 1-9.118442-33.011683l31.792641-454.898077c1.462852-20.870016 14.628516-37.15643 30.037219-37.15643H192.121173c0.585141 0.390094 2.925703 3.364559 2.925703 8.289492z"  horiz-adv-x="1024" />

    
    <glyph glyph-name="tubiao-shanchu" unicode="&#58962;" d="M768 691.2h179.2a25.6 25.6 0 1 0 0-51.2H870.4v-563.2a102.4 102.4 0 0 0-102.4-102.4H307.2a102.4 102.4 0 0 0-102.4 102.4V640H128a25.6 25.6 0 0 0 0 51.2H307.2V742.4a51.2 51.2 0 0 0 51.2 51.2h358.4a51.2 51.2 0 0 0 51.2-51.2v-51.2zM307.2 640H256v-563.2a51.2 51.2 0 0 1 51.2-51.2h460.8a51.2 51.2 0 0 1 51.2 51.2V640H307.2z m76.8-102.4a25.6 25.6 0 0 0 25.6-25.6v-358.4a25.6 25.6 0 1 0-51.2 0v358.4a25.6 25.6 0 0 0 25.6 25.6z m153.6 0a25.6 25.6 0 0 0 25.6-25.6v-358.4a25.6 25.6 0 1 0-51.2 0v358.4a25.6 25.6 0 0 0 25.6 25.6z m153.6 0a25.6 25.6 0 0 0 25.6-25.6v-358.4a25.6 25.6 0 1 0-51.2 0v358.4a25.6 25.6 0 0 0 25.6 25.6zM358.4 742.4v-51.2h358.4V742.4H358.4z"  horiz-adv-x="1024" />

    
    <glyph glyph-name="tubiao-bianji" unicode="&#58963;" d="M870.4 486.4a25.6 25.6 0 1 0 51.2 0v-409.6a102.4 102.4 0 0 0-102.4-102.4H204.8a102.4 102.4 0 0 0-102.4 102.4V691.2a102.4 102.4 0 0 0 102.4 102.4h409.6a25.6 25.6 0 1 0 0-51.2H204.8a51.2 51.2 0 0 1-51.2-51.2v-614.4a51.2 51.2 0 0 1 51.2-51.2h614.4a51.2 51.2 0 0 1 51.2 51.2V486.4zM784.0768 576.3584l36.1984 36.1984a51.2 51.2 0 1 1-72.3968 72.448l-36.2496-36.1984 72.448-72.448z m-36.1984-36.1984l-72.448 72.3968-289.5872-289.5872 72.3968-72.448 289.6384 289.6384zM458.24 178.176l-181.0432-36.2496 36.1984 181.0432L711.68 721.2032a102.4 102.4 0 1 0 144.8448-144.8448L458.24 178.176z m-43.3664 43.6736l-57.856 58.0096-14.4896-72.8576 72.3456 14.848z"  horiz-adv-x="1024" />

    
    <glyph glyph-name="praised" unicode="&#58936;" d="M886.59584 472.46208L648.01152 472.46208C740.45184 813.91488 584.30464 831.36 584.30464 831.36c-66.2016 0-52.4608-52.34048-57.4592-61.06112 0-166.98624-177.37216-297.8368-177.37216-297.8368l0-473.54752c0-46.72768 63.70048-63.55456 88.6848-63.55456l358.5024 0c33.728 0 61.20576 88.48256 61.20576 88.48256C946.56 325.41184 946.56 415.13472 946.56 415.13472 946.56 477.44256 886.59584 472.46208 886.59584 472.46208L886.59584 472.46208zM886.59584 472.46208M251.56736 472.3072L108.69888 472.3072c-29.51296 0-29.97888-28.97664-29.97888-28.97664l29.51296-477.59232c0-30.37824 30.4448-30.37824 30.4448-30.37824l123.66336 0c25.76256 0 25.5296 20.09472 25.5296 20.09472L287.87072 436.09088C287.87072 472.77312 251.56736 472.3072 251.56736 472.3072L251.56736 472.3072zM251.56736 472.3072"  horiz-adv-x="1024" />

    
    <glyph glyph-name="yanjing" unicode="&#59005;" d="M941.677 504.29c9.338 14.006 6.225 32.681-6.225 43.575-14.006 10.894-32.681 7.781-43.575-6.225-1.557-1.556-174.3-205.426-379.728-205.426-199.2 0-379.727 205.426-381.283 206.982-10.895 12.45-31.125 14.006-43.576 3.113-12.45-10.894-14.006-31.125-3.113-43.576 3.113-4.668 40.463-46.687 99.6-93.375l-79.37-82.482c-12.45-12.45-10.893-32.681 1.557-43.575 3.113-6.225 10.894-9.338 18.676-9.338 7.78 0 15.562 3.113 21.787 9.338l85.594 88.706c40.463-28.013 88.707-54.47 141.62-73.144l-32.682-110.495c-4.668-17.118 4.67-34.237 21.788-38.906h9.337c14.006 0 26.457 9.338 29.569 23.344l32.681 110.495c24.9-4.669 51.357-7.782 77.813-7.782s52.913 3.113 77.814 7.782l32.68-108.939c3.114-14.006 17.12-23.343 29.57-23.343 3.113 0 6.225 0 7.782 1.556 17.118 4.67 26.456 21.787 21.788 38.906L649.099 300.42c52.914 18.676 101.157 45.132 141.62 73.144l84.038-87.15c6.225-6.225 14.006-9.338 21.787-9.338 7.781 0 15.563 3.113 21.787 9.337 12.45 12.451 12.45 31.125 1.557 43.576l-79.37 82.481c63.808 46.689 101.16 91.82 101.16 91.82z"  horiz-adv-x="1024" />

    
    <glyph glyph-name="yanjing1" unicode="&#59154;" d="M515.2 672C208 672 22.4 358.4 22.4 358.4s214.4-304 492.8-304 492.8 304 492.8 304S822.4 672 515.2 672zM832 243.2c-102.4-86.4-211.2-140.8-320-140.8s-217.6 51.2-320 140.8c-35.2 32-70.4 64-99.2 99.2-6.4 6.4-9.6 12.8-16 19.2 3.2 6.4 9.6 12.8 12.8 19.2 25.6 35.2 57.6 70.4 92.8 102.4 99.2 89.6 208 144 329.6 144s230.4-54.4 329.6-144c35.2-32 64-67.2 92.8-102.4 3.2-6.4 9.6-12.8 12.8-19.2-3.2-6.4-9.6-12.8-16-19.2-28.8-32-60.8-67.2-99.2-99.2zM512 550.4c-96 0-169.6-76.8-169.6-169.6 0-96 76.8-169.6 169.6-169.6 96 0 169.6 76.8 169.6 169.6S604.8 550.4 512 550.4z m0-294.4c-67.2 0-121.6 54.4-121.6 121.6 0 67.2 54.4 121.6 121.6 121.6 67.2 0 121.6-54.4 121.6-121.6 0-64-54.4-121.6-121.6-121.6z"  horiz-adv-x="1024" />

    
    <glyph glyph-name="tongxunlux" unicode="&#58961;" d="M512-108.307692C240.246154-108.307692 19.692308 112.246154 19.692308 384S240.246154 876.307692 512 876.307692 1004.307692 655.753846 1004.307692 384 783.753846-108.307692 512-108.307692z m0 945.230769C263.876923 836.923077 59.076923 632.123077 59.076923 384S263.876923-68.923077 512-68.923077 964.923077 135.876923 964.923077 384 760.123077 836.923077 512 836.923077zM512 246.153846c-98.461538 0-177.230769 78.769231-177.230769 177.230769s78.769231 177.230769 177.230769 177.23077 177.230769-78.769231 177.230769-177.23077-78.769231-177.230769-177.230769-177.230769z m0 315.076923c-74.830769 0-137.846154-63.015385-137.846154-137.846154s63.015385-137.846154 137.846154-137.846153 137.846154 63.015385 137.846154 137.846153-63.015385 137.846154-137.846154 137.846154zM807.384615-9.846154h-39.384615c0 141.784615-114.215385 256-256 256S256 131.938462 256-9.846154h-39.384615c0 161.476923 133.907692 295.384615 295.384615 295.384616s295.384615-133.907692 295.384615-295.384616z"  horiz-adv-x="1024" />

    
    <glyph glyph-name="tongxunlux-copy" unicode="&#59509;" d="M512-108.30769199999997C240.246154-108.30769199999997 19.692308 112.24615400000005 19.692308 384S240.246154 876.307692 512 876.307692 1004.307692 655.7538460000001 1004.307692 384 783.753846-108.30769199999997 512-108.30769199999997z m0 945.230769C263.876923 836.923077 59.076923 632.123077 59.076923 384S263.876923-68.92307700000003 512-68.92307700000003 964.923077 135.87692300000003 964.923077 384 760.123077 836.923077 512 836.923077zM512 246.15384600000004c-98.461538 0-177.230769 78.769231-177.230769 177.230769s78.769231 177.230769 177.230769 177.23077 177.230769-78.769231 177.230769-177.23077-78.769231-177.230769-177.230769-177.230769z m0 315.076923c-74.830769 0-137.846154-63.015385-137.846154-137.846154s63.015385-137.846154 137.846154-137.846153 137.846154 63.015385 137.846154 137.846153-63.015385 137.846154-137.846154 137.846154zM807.384615-9.846153999999956h-39.384615c0 141.784615-114.215385 256-256 256S256 131.93846199999996 256-9.846153999999956h-39.384615c0 161.476923 133.907692 295.384615 295.384615 295.384616s295.384615-133.907692 295.384615-295.384616z"  horiz-adv-x="1024" />

    
    <glyph glyph-name="erweima" unicode="&#58919;" d="M437.803142 576.669066H319.330934v-118.472208h118.472208V576.669066z m-29.621708-88.8505h-59.236104V547.061982h59.236104v-59.243416zM704.376578 576.669066H585.90437v-118.472208h118.472208V576.669066z m-29.614396-88.8505h-59.236104V547.061982h59.236104v-59.243416zM437.803142 310.09563H319.330934v-118.472208h118.472208V310.09563z m-29.621708-88.857812h-59.236104v59.243416h59.236104v-59.243416zM511.853756 896.007312c-282.689517 0-511.853756-229.164239-511.853756-511.853756s229.164239-511.853756 511.853756-511.853756 511.853756 229.164239 511.853756 511.853756-229.164239 511.853756-511.853756 511.853756zM497.046558 132.387318H260.087518V369.339046h236.951728v-236.951728z m0 266.566124H260.087518V635.912482h236.951728v-236.95904z m266.573436-266.566124H645.140474v59.243416h-59.236104v-59.243416h-59.236104v59.243416h59.236104V310.09563h-59.236104v59.243416h59.236104v-59.243416h59.236104v-118.472208h59.236104v59.236104h59.243416v-118.472208z m0 177.708312h-59.243416v59.243416h59.243416v-59.243416z m0 88.857812H526.668266V635.912482h236.951728v-236.95904z"  horiz-adv-x="1024" />

    
    <glyph glyph-name="tuijianyoujiang" unicode="&#58959;" d="M1047.272727 477.090909c0-38.493091-31.325091-69.818182-69.818182-69.818182h-302.545454v186.181818H977.454545c38.493091 0 69.818182-31.325091 69.818182-69.818181v-46.545455z m-558.545454-535.272727v651.636363h139.636363v-651.636363h-139.636363z m-325.818182 69.818182v349.090909h279.272727v-418.909091H244.363636c-44.916364 0-81.454545 31.325091-81.454545 69.818182zM139.636364 407.272727c-38.493091 0-69.818182 31.325091-69.818182 69.818182V523.636364c0 38.493091 31.325091 69.818182 69.818182 69.818181h302.545454v-186.181818H139.636364z m162.909091 328.424728c0 25.320727 7.912727 48.081455 22.388363 64.186181 15.685818 17.454545 39.005091 26.298182 69.445818 26.298182 31.697455 0 55.901091-9.448727 76.101819-29.742545 39.237818-39.517091 55.342545-110.824727 61.858909-156.439273H394.379636C305.105455 640 302.545455 725.922909 302.545455 735.697455z m344.017454 60.695272c20.247273 20.340364 44.404364 29.789091 76.148364 29.789091 30.394182 0 53.76-8.843636 69.445818-26.298182 14.429091-16.058182 22.388364-38.865455 22.388364-64.186181 0-9.774545-2.606545-95.697455-91.834182-95.697455h-138.007273c6.516364 45.614545 22.621091 116.875636 61.858909 156.392727zM977.454545 640h-149.178181c22.155636 26.856727 32.814545 61.905455 32.814545 95.697455 0 36.817455-12.194909 70.656-34.304 95.278545C801.885091 858.670545 766.882909 872.727273 722.711273 872.727273c-43.706182 0-80.430545-14.615273-109.149091-43.52-25.879273-26.065455-43.147636-61.160727-55.016727-96.768-11.915636 35.607273-29.184 70.702545-55.063273 96.768C474.763636 858.112 438.039273 872.727273 394.379636 872.727273c-44.218182 0-79.220364-14.056727-104.075636-41.751273-22.155636-24.622545-34.304-58.461091-34.304-95.278545 0-33.792 10.612364-68.840727 32.768-95.697455H139.636364A116.503273 116.503273 0 0 1 23.272727 523.636364v-46.545455c0-56.180364 40.029091-103.191273 93.090909-113.989818V11.636364c0-64.139636 57.390545-116.363636 128-116.363637h628.363637c70.609455 0 128 52.224 128 116.363637v245.341091a23.272727 23.272727 0 0 1-46.545455 0V11.636364c0-38.493091-36.538182-69.818182-81.454545-69.818182H674.909091v418.909091H977.454545c64.139636 0 116.363636 52.224 116.363637 116.363636V523.636364c0 64.139636-52.224 116.363636-116.363637 116.363636z"  horiz-adv-x="1117" />

    
    <glyph glyph-name="fujindedian" unicode="&#58960;" d="M684.497455-46.545455h139.636363v279.272728h-139.636363v-279.272728z m409.274181 509.253819c-1.210182-66.513455-56.738909-121.669818-127.906909-131.816728l0.837818-400.663272a23.272727 23.272727 0 0 0-23.272727-23.319273H174.498909a23.272727 23.272727 0 0 0-23.272727 23.272727v282.205091a23.272727 23.272727 0 0 0 46.545454 0v-258.932364h440.180364v302.545455a23.272727 23.272727 0 0 0 23.272727 23.272727h186.181818a23.272727 23.272727 0 0 0 23.272728-23.272727v-302.545455h49.431272l-0.791272 377.995637c-43.380364 6.097455-81.687273 27.787636-104.773818 60.974545-27.182545-39.051636-74.984727-63.674182-128-63.674182s-100.817455 24.622545-128 63.674182c-27.229091-39.051636-75.031273-63.674182-128.046546-63.674182-53.015273 0-100.770909 24.622545-127.953454 63.674182-27.229091-39.051636-75.031273-63.674182-128.046546-63.674182-82.106182 0-149.922909 60.276364-151.226182 134.423273a41.239273 41.239273 0 0 0 3.304728 14.522182l117.666909 235.147636A99.002182 99.002182 0 0 0 233.425455 768h650.193454c38.074182 0 72.238545-21.131636 89.181091-55.156364l117.76-235.333818a40.448 40.448 0 0 0 3.211636-14.801454z m-572.229818-397.917091h-232.727273a23.272727 23.272727 0 0 0-23.272727 23.272727v162.909091a23.272727 23.272727 0 0 0 23.272727 23.272727h232.727273a23.272727 23.272727 0 0 0 23.272727-23.272727v-162.909091a23.272727 23.272727 0 0 0-23.272727-23.272727zM233.425455 814.545455a23.272727 23.272727 0 0 0 0 46.545454h650.24a23.272727 23.272727 0 0 0 0-46.545454H233.472z m709.12-439.249455c55.435636 0 101.469091 37.794909 104.54109 85.038545l-115.898181 231.703273v0.046546a52.875636 52.875636 0 0 1-47.569455 29.370181H233.425455c-20.293818 0-38.493091-11.264-47.569455-29.370181L70.004364 460.381091c3.258182-47.476364 49.245091-85.085091 104.494545-85.085091 46.266182 0 86.481455 25.6 100.119273 63.674182 8.657455 24.017455 47.150545 23.877818 55.808 0.046545 13.405091-37.562182 54.551273-63.720727 100.072727-63.720727 46.266182 0 86.481455 25.6 100.119273 63.674182 8.657455 24.017455 47.150545 23.877818 55.808 0.046545 13.637818-38.120727 53.853091-63.720727 100.119273-63.720727 45.521455 0 86.667636 26.158545 100.072727 63.674182a29.509818 29.509818 0 0 0 27.880727 19.735273c12.660364 0 23.598545-7.773091 27.927273-19.688728 13.637818-38.120727 53.853091-63.720727 100.119273-63.720727zM312.087273 111.336727h186.181818v116.363637h-186.181818v-116.363637z"  horiz-adv-x="1117" />

    
    <glyph glyph-name="guanbi1-copy" unicode="&#59513;" d="M512.128 414.037333l135.765333 135.765334a21.333333 21.333333 0 0 0 30.165334-30.165334l-135.765334-135.765333 135.765334-135.765333a21.333333 21.333333 0 0 0-30.165334-30.165334l-135.765333 135.765334-135.765333-135.765334a21.333333 21.333333 0 0 0-30.165334 30.165334l135.765334 135.765333L346.197333 519.6800000000001a21.333333 21.333333 0 1 0 30.165334 30.165333l135.765333-135.765333zM512 896c282.752 0 512-229.248 512-512s-229.248-512-512-512S0 101.24800000000005 0 384 229.248 896 512 896z m0-42.666667C252.8 853.333333 42.666667 643.2 42.666667 384s210.133333-469.333333 469.333333-469.333333 469.333333 210.133333 469.333333 469.333333S771.2 853.333333 512 853.333333z"  horiz-adv-x="1024" />

    
    <glyph glyph-name="guanbi1" unicode="&#58958;" d="M512.128 414.037333l135.765333 135.765334a21.333333 21.333333 0 0 0 30.165334-30.165334l-135.765334-135.765333 135.765334-135.765333a21.333333 21.333333 0 0 0-30.165334-30.165334l-135.765333 135.765334-135.765333-135.765334a21.333333 21.333333 0 0 0-30.165334 30.165334l135.765334 135.765333L346.197333 519.6800000000001a21.333333 21.333333 0 1 0 30.165334 30.165333l135.765333-135.765333zM512 896c282.752 0 512-229.248 512-512s-229.248-512-512-512S0 101.24800000000005 0 384 229.248 896 512 896z m0-42.666667C252.8 853.333333 42.666667 643.2 42.666667 384s210.133333-469.333333 469.333333-469.333333 469.333333 210.133333 469.333333 469.333333S771.2 853.333333 512 853.333333z"  horiz-adv-x="1024" />

    
    <glyph glyph-name="tubiao-shouye1-copy" unicode="&#59512;" d="M841.3184 757.7088l105.472-273.2544c0-75.776-55.3984-137.4208-123.5456-137.4208-32.5632 0-64.9216 23.3984-96.3072 69.632-4.5056-5.6832-11.1104-13.824-24.8832-29.3376-22.8352-25.6-54.4256-40.2944-86.8352-40.2944-42.1376 0-81.1008 24.6784-103.3728 64.3072-22.4256-39.6288-61.7984-64.3072-104.6016-64.3072-42.1376 0-81.152 24.7296-103.424 64.3072-22.4256-39.5776-61.7984-64.3072-104.6016-64.3072-67.4816 0-122.3168 61.6448-122.3168 137.4208l1.0752 7.168 101.9392 265.472c6.9632 21.8112 25.6 36.5056 46.3872 36.5056h569.0368c20.48 0 38.912-14.4384 45.9776-35.8912z m-51.3536-492.9024a25.6 25.6 0 0 0 51.2 0v-187.5968c0-55.6032-45.2608-100.864-100.864-100.864H280.064c-49.1008 0-97.2288 49.9712-97.2288 100.864v187.904a25.5488 25.5488 0 1 0 51.2 0v-187.904c0-22.272 25.3952-49.664 46.08-49.664h460.1344a49.7664 49.7664 0 0 1 49.7152 49.664v187.5968z m-31.744 182.8352c21.0944-31.8464 41.8816-49.408 58.4704-49.408 39.5264 0 72.1408 34.4064 75.6736 78.2336l-100.0448 263.7824C791.9104 741.376 790.6304 742.4 789.4016 742.4H232.8576a3.584 3.584 0 0 1-3.2256-2.56L131.6352 479.6416c2.2016-45.312 34.8672-81.408 74.752-81.408 25.9584 0 50.688 15.5136 64.4608 40.4992 8.192 14.7968 22.4768 23.808 37.888 23.808 15.36 0 29.696-9.0624 37.888-23.9104 13.6704-24.9344 37.888-40.3968 63.1808-40.3968 25.9584 0 50.688 15.5136 64.512 40.448 8.192 14.848 22.4768 23.8592 37.888 23.8592 15.36-0.0512 29.6448-9.0624 37.8368-23.9616 13.6704-24.8832 37.888-40.3456 63.1808-40.3456 19.9168 0 39.2192 9.1648 53.1456 25.1904 12.4928 14.4384 18.5344 21.9648 22.6304 27.2384a43.2128 43.2128 0 0 0 35.1744 17.152 43.3664 43.3664 0 0 0 33.9968-20.1728z m-35.0208 154.88c10.5472 0 19.2-11.52 19.2-25.6s-8.704-25.6-19.2-25.6h-422.4c-10.5472 0-19.2 11.52-19.2 25.6s8.6528 25.6 19.2 25.6h422.4z"  horiz-adv-x="1024" />

    
    <glyph glyph-name="gouwuchexuanzhong" unicode="&#58951;" d="M898.520615 397.351385a56.123077 56.123077 0 0 0-47.300923-36.627693L323.899077 302.631385l11.618461-54.114462c2.756923-12.996923 13.351385-22.055385 25.67877-22.055385h519.404307a19.692308 19.692308 0 1 0 0-39.384615H361.156923c-30.562462 0-57.580308 22.370462-64.118154 53.169231l-23.906461 111.222154-69.316923 320.905846c-0.118154 0.551385 0.118154 1.102769 0 1.693538l-25.993847 121.107693c-2.756923 12.996923-13.390769 22.055385-25.639384 22.055384H59.076923a19.692308 19.692308 0 1 0 0 39.384616h93.105231c31.035077 0 57.422769-21.858462 64.196923-53.169231l22.961231-107.244308h688.64A56.674462 56.674462 0 0 0 981.070769 619.913846l-82.550154-222.601846zM437.523692 147.692308c54.350769 0 98.461538-44.189538 98.461539-98.461539s-44.110769-98.461538-98.461539-98.461538a98.579692 98.579692 0 0 0-98.461538 98.461538c0 54.272 44.150154 98.461538 98.461538 98.461539z m336.029539 0c54.311385 0 98.461538-44.189538 98.461538-98.461539S827.864615-49.230769 773.513846-49.230769a98.579692 98.579692 0 0 0-98.461538 98.461538c0 54.272 44.110769 98.461538 98.461538 98.461539z m-336.029539-157.538462c32.571077 0 59.076923 26.505846 59.076923 59.076923s-26.505846 59.076923-59.076923 59.076923-59.076923-26.505846-59.076923-59.076923 26.505846-59.076923 59.076923-59.076923z m336.029539 0c32.571077 0 59.076923 26.505846 59.076923 59.076923s-26.505846 59.076923-59.076923 59.076923-59.076923-26.505846-59.076923-59.076923 26.505846-59.076923 59.076923-59.076923z"  horiz-adv-x="1024" />

    
    <glyph glyph-name="shouyexuanzhong" unicode="&#58952;" d="M855.118769 764.140308L964.923077 461.981538c0-70.577231-57.698462-128-128.630154-128-33.910154 0-67.623385 21.819077-100.273231 64.866462-4.726154-5.277538-11.579077-12.878769-25.993846-27.332923a128.157538 128.157538 0 0 0-90.269538-37.494154h-0.07877A127.606154 127.606154 0 0 0 512 393.924923a128.984615 128.984615 0 0 0-108.937846-59.864615 127.606154 127.606154 0 0 0-107.677539 59.864615 129.102769 129.102769 0 0 0-108.937846-59.864615A127.803077 127.803077 0 0 0 59.076923 461.981538l1.142154 6.695385 106.141538 294.833231A51.357538 51.357538 0 0 0 214.646154 797.538462h592.580923a51.2 51.2 0 0 0 47.891692-33.398154z m-130.481231-437.444923c10.633846 12.878769 22.055385 11.027692 32.295385 0 23.985231-31.547077 68.923077-40.566154 107.795692-29.026462l25.284923 7.483077v-270.020923c0-38.636308-31.468308-70.104615-70.104615-70.104615H200.664615c-32.413538 0-66.717538 36.076308-66.717538 70.104615v270.296615l25.403077-7.719384c38.203077-11.697231 92.396308 2.599385 119.926154 31.744 4.726154 5.041231 8.349538 8.270769 14.060307 8.270769s8.743385-1.772308 16.108308-8.270769c25.245538-22.252308 64.275692-35.84 94.365539-35.879385 30.247385 0 72.152615 8.979692 90.505846 33.083077 7.364923 9.688615 8.585846 11.027692 15.872 11.027692 7.286154 0 9.609846-1.457231 16.81723-11.027692 18.038154-23.945846 63.330462-33.004308 93.341539-33.083077 30.168615 0 84.401231 9.058462 104.290461 33.083077zM728.615385 538.781538c10.830769 0 19.692308 8.861538 19.692307 19.692308s-8.861538 19.692308-19.692307 19.692308h-433.23077c-10.830769 0-19.692308-8.861538-19.692307-19.692308s8.861538-19.692308 19.692307-19.692308h433.23077z"  horiz-adv-x="1024" />

    
    <glyph glyph-name="tubiao-gouwuche1" unicode="&#58953;" d="M812.8512 419.1744l107.3152 187.0336a21.9648 21.9648 0 0 1-2.6112 20.48 22.016 22.016 0 0 1-18.3296 9.6256H271.0016l114.0224-377.1904c3.584-16.896 17.3056-28.7232 33.3312-28.7232h419.1744a25.5488 25.5488 0 1 0 0-51.2H418.3552c-40.3456 0-74.7008 28.4672-83.456 69.1712L215.2448 651.776c-0.6656 1.536-0.7168 3.2768-1.0752 4.9152L179.968 764.928C176.3328 781.824 162.6112 793.6 146.5856 793.6H76.8a25.6 25.6 0 0 0 0 51.2h69.7856c40.3456 0 74.7008-28.416 83.456-69.12l29.952-88.1664h639.232a73.5744 73.5744 0 0 0 68.9152-99.1232l-107.3152-187.0336a73.0112 73.0112 0 0 0-61.4912-47.5648c-218.4704-27.8016-328.0384-41.728-328.6528-41.728a25.5488 25.5488 0 0 0-2.56 51.0464l326.0416 41.6256a22.1696 22.1696 0 0 1 18.688 14.4384z m-320.8704-291.1232c56.5248 0 102.4-45.9776 102.4-102.4 0-56.4736-45.8752-102.4-102.4-102.4-56.4736 0-102.4 45.9264-102.4 102.4 0 56.4224 45.9264 102.4 102.4 102.4z m180.8896-102.4c0 56.4224 45.8752 102.4 102.4 102.4 56.4736 0 102.4-45.9776 102.4-102.4 0-56.4736-45.9264-102.4-102.4-102.4-56.5248 0-102.4 45.9264-102.4 102.4z m-180.8896-51.2a51.2512 51.2512 0 0 1 0 102.4 51.2512 51.2512 0 0 1 0-102.4z m283.2896 0a51.2512 51.2512 0 0 1 0 102.4 51.2512 51.2512 0 0 1 0-102.4z"  horiz-adv-x="1024" />

    
    <glyph glyph-name="tubiao-shouye1" unicode="&#58954;" d="M841.3184 757.7088l105.472-273.2544c0-75.776-55.3984-137.4208-123.5456-137.4208-32.5632 0-64.9216 23.3984-96.3072 69.632-4.5056-5.6832-11.1104-13.824-24.8832-29.3376-22.8352-25.6-54.4256-40.2944-86.8352-40.2944-42.1376 0-81.1008 24.6784-103.3728 64.3072-22.4256-39.6288-61.7984-64.3072-104.6016-64.3072-42.1376 0-81.152 24.7296-103.424 64.3072-22.4256-39.5776-61.7984-64.3072-104.6016-64.3072-67.4816 0-122.3168 61.6448-122.3168 137.4208l1.0752 7.168 101.9392 265.472c6.9632 21.8112 25.6 36.5056 46.3872 36.5056h569.0368c20.48 0 38.912-14.4384 45.9776-35.8912z m-51.3536-492.9024a25.6 25.6 0 0 0 51.2 0v-187.5968c0-55.6032-45.2608-100.864-100.864-100.864H280.064c-49.1008 0-97.2288 49.9712-97.2288 100.864v187.904a25.5488 25.5488 0 1 0 51.2 0v-187.904c0-22.272 25.3952-49.664 46.08-49.664h460.1344a49.7664 49.7664 0 0 1 49.7152 49.664v187.5968z m-31.744 182.8352c21.0944-31.8464 41.8816-49.408 58.4704-49.408 39.5264 0 72.1408 34.4064 75.6736 78.2336l-100.0448 263.7824C791.9104 741.376 790.6304 742.4 789.4016 742.4H232.8576a3.584 3.584 0 0 1-3.2256-2.56L131.6352 479.6416c2.2016-45.312 34.8672-81.408 74.752-81.408 25.9584 0 50.688 15.5136 64.4608 40.4992 8.192 14.7968 22.4768 23.808 37.888 23.808 15.36 0 29.696-9.0624 37.888-23.9104 13.6704-24.9344 37.888-40.3968 63.1808-40.3968 25.9584 0 50.688 15.5136 64.512 40.448 8.192 14.848 22.4768 23.8592 37.888 23.8592 15.36-0.0512 29.6448-9.0624 37.8368-23.9616 13.6704-24.8832 37.888-40.3456 63.1808-40.3456 19.9168 0 39.2192 9.1648 53.1456 25.1904 12.4928 14.4384 18.5344 21.9648 22.6304 27.2384a43.2128 43.2128 0 0 0 35.1744 17.152 43.3664 43.3664 0 0 0 33.9968-20.1728z m-35.0208 154.88c10.5472 0 19.2-11.52 19.2-25.6s-8.704-25.6-19.2-25.6h-422.4c-10.5472 0-19.2 11.52-19.2 25.6s8.6528 25.6 19.2 25.6h422.4z"  horiz-adv-x="1024" />

    
    <glyph glyph-name="gouwuche" unicode="&#58955;" d="M862.523077 411.569231l82.707692 224.492307c3.938462 3.938462 0 11.815385-3.938461 15.753847-3.938462 3.938462-7.876923 7.876923-15.753846 7.876923h-681.353847l86.646154-409.6c3.938462-11.815385 11.815385-23.630769 27.569231-23.63077h519.876923c11.815385 0 19.692308-7.876923 19.692308-19.692307s-7.876923-19.692308-19.692308-19.692308h-519.876923c-31.507692 0-59.076923 23.630769-63.015385 55.138462l-90.584615 429.292307v3.938462l-27.569231 122.092308c-3.938462 11.815385-11.815385 23.630769-27.569231 23.630769h-94.523076c-11.815385 0-19.692308 7.876923-19.692308 19.692307s7.876923 19.692308 19.692308 19.692308h94.523076c31.507692 0 59.076923-23.630769 63.015385-55.138461l23.630769-106.338462h689.23077c19.692308 0 35.446154-7.876923 47.261538-23.630769 11.815385-15.753846 11.815385-35.446154 7.876923-51.2l-82.707692-224.492308c-7.876923-19.692308-27.569231-35.446154-47.261539-35.446154l-429.292307-43.323077h-3.938462c-11.815385 0-19.692308 7.876923-19.692308 15.753847 0 11.815385 7.876923 19.692308 15.753847 19.692307l429.292307 43.323077c11.815385 0 15.753846 3.938462 19.692308 11.815385z m-425.353846-263.876923c55.138462 0 98.461538-43.323077 98.461538-98.461539s-43.323077-98.461538-98.461538-98.461538-98.461538 43.323077-98.461539 98.461538 43.323077 98.461538 98.461539 98.461539z m334.769231 0c55.138462 0 98.461538-43.323077 98.461538-98.461539s-43.323077-98.461538-98.461538-98.461538-98.461538 43.323077-98.461539 98.461538 47.261538 98.461538 98.461539 98.461539z m-334.769231-157.538462c31.507692 0 59.076923 27.569231 59.076923 59.076923s-27.569231 59.076923-59.076923 59.076923-59.076923-27.569231-59.076923-59.076923 27.569231-59.076923 59.076923-59.076923z m334.769231 0c31.507692 0 59.076923 27.569231 59.076923 59.076923s-27.569231 59.076923-59.076923 59.076923-59.076923-27.569231-59.076924-59.076923 27.569231-59.076923 59.076924-59.076923zM437.169231-9.846154c-31.507692 0-59.076923 27.569231-59.076923 59.076923s27.569231 59.076923 59.076923 59.076923 59.076923-27.569231 59.076923-59.076923-27.569231-59.076923-59.076923-59.076923M771.938462-9.846154c-31.507692 0-59.076923 27.569231-59.076924 59.076923s27.569231 59.076923 59.076924 59.076923 59.076923-27.569231 59.076923-59.076923-23.630769-59.076923-59.076923-59.076923"  horiz-adv-x="1024" />

    
    <glyph glyph-name="shouye" unicode="&#58956;" d="M834.953846 372.184615c-15.753846 0-39.384615 7.876923-74.830769 59.076923-7.876923 11.815385-15.753846 11.815385-23.630769 11.815385-11.815385 0-19.692308-7.876923-27.569231-15.753846l-3.938462-3.938462-27.56923-27.56923c-15.753846-15.753846-39.384615-27.569231-63.015385-27.569231-35.446154 0-66.953846 19.692308-78.769231 51.2-3.938462 11.815385-15.753846 15.753846-27.569231 15.753846-11.815385 0-23.630769-7.876923-27.56923-15.753846-15.753846-31.507692-47.261538-51.2-82.707693-51.2-35.446154 0-66.953846 19.692308-78.76923 51.2-3.938462 11.815385-15.753846 15.753846-27.569231 15.753846-11.815385 0-23.630769-7.876923-27.569231-15.753846-15.753846-31.507692-47.261538-51.2-82.707692-51.2-47.261538 0-86.646154 39.384615-86.646154 86.646154l106.338461 291.446154c0 3.938462 7.876923 7.876923 11.815385 7.876923h590.769231c3.938462 0 7.876923-3.938462 11.815384-7.876923l106.338462-291.446154c3.938462-43.323077-35.446154-82.707692-86.646154-82.707693zM854.646154 766.030769l110.276923-303.261538c0-70.892308-59.076923-126.030769-129.969231-126.030769-35.446154 0-66.953846 23.630769-98.461538 63.015384l-27.569231-27.569231c-23.630769-23.630769-55.138462-39.384615-90.584615-39.384615-43.323077 0-82.707692 23.630769-106.338462 59.076923-23.630769-35.446154-63.015385-59.076923-110.276923-59.076923-43.323077 0-82.707692 23.630769-106.338462 59.076923-23.630769-35.446154-63.015385-59.076923-110.276923-59.076923-70.892308 0-126.030769 59.076923-126.030769 126.030769v7.876923l106.338462 295.384616c7.876923 19.692308 27.569231 35.446154 47.261538 35.446154h590.769231c23.630769 0 43.323077-11.815385 51.2-31.507693z m15.753846-468.676923c11.815385 0 19.692308-7.876923 19.692308-19.692308v-244.184615c0-39.384615-31.507692-70.892308-70.892308-70.892308h-618.338462c-31.507692 0-66.953846 35.446154-66.953846 70.892308v244.184615c0 11.815385 7.876923 19.692308 19.692308 19.692308s19.692308-7.876923 19.692308-19.692308v-244.184615c0-11.815385 15.753846-31.507692 27.56923-31.507692h618.338462c15.753846 0 31.507692 15.753846 31.507692 31.507692v244.184615c0 11.815385 7.876923 19.692308 19.692308 19.692308z m-35.446154 74.830769c47.261538 0 86.646154 39.384615 90.584616 86.646154l-106.338462 291.446154c0 3.938462-7.876923 7.876923-11.815385 7.876923h-590.76923c-3.938462 0-7.876923-3.938462-11.815385-7.876923l-106.338462-291.446154c0-47.261538 39.384615-86.646154 86.646154-86.646154 35.446154 0 66.953846 19.692308 82.707693 51.2 3.938462 11.815385 15.753846 15.753846 27.56923 15.753847 11.815385 0 23.630769-7.876923 27.569231-15.753847 15.753846-31.507692 47.261538-51.2 78.769231-51.2 35.446154 0 66.953846 19.692308 82.707692 51.2 3.938462 11.815385 15.753846 15.753846 27.569231 15.753847 11.815385 0 23.630769-7.876923 27.569231-15.753847 15.753846-31.507692 47.261538-51.2 78.769231-51.2 23.630769 0 47.261538 7.876923 63.015384 27.569231l27.569231 27.569231 3.938461 3.938461c3.938462 3.938462 15.753846 15.753846 27.569231 15.753847 3.938462 0 15.753846-3.938462 23.630769-11.815385 31.507692-51.2 55.138462-63.015385 70.892308-63.015385z m-106.338461 204.8c11.815385 0 19.692308-7.876923 19.692307-19.692307s-7.876923-19.692308-19.692307-19.692308h-433.23077c-11.815385 0-19.692308 7.876923-19.692307 19.692308s7.876923 19.692308 19.692307 19.692307h433.23077z"  horiz-adv-x="1024" />

    
    <glyph glyph-name="duihao" unicode="&#58947;" d="M378.62716-43.19953c-10.685479 0-21.370958 4.063492-29.467842 12.220576l-282.066549 282.006349c-16.314168 16.344268-16.314168 42.621517 0 58.965785 16.253968 16.223868 42.651617 16.223868 58.875485 0l252.689006-252.628807L900.590241 579.267255c16.193768 16.344268 42.621517 16.344268 58.845385 0 16.314168-16.284068 16.314168-42.621517 0-58.905585L408.095003-31.039153C399.937919-39.136038 389.31264-43.19953 378.62716-43.19953L378.62716-43.19953zM378.62716-43.19953"  horiz-adv-x="1024" />

    
    <glyph glyph-name="dianpufenlei" unicode="&#58948;" d="M128 896h192c70.4 0 128-57.6 128-128v-320h-320c-70.4 0-128 57.6-128 128v192c0 70.4 57.6 128 128 128z m0-576h320v-320c0-70.4-57.6-128-128-128h-192c-70.4 0-128 57.6-128 128v192c0 70.4 57.6 128 128 128z m576 576h192c70.4 0 128-57.6 128-128v-192c0-70.4-57.6-128-128-128h-320v320c0 70.4 57.6 128 128 128z m-128-576h320c70.4 0 128-57.6 128-128v-192c0-70.4-57.6-128-128-128h-192c-70.4 0-128 57.6-128 128v320z"  horiz-adv-x="1024" />

    
    <glyph glyph-name="xuanzhong" unicode="&#58949;" d="M450.56 281.6l-122.88 122.88c-13.653333 13.653333-34.133333 13.653333-47.786667 0-13.653333-13.653333-13.653333-34.133333 0-47.786667l143.36-143.36c6.826667-6.826667 20.48-13.653333 34.133334-6.826666 6.826667 0 13.653333 6.826667 13.653333 6.826666l286.72 286.72c13.653333 13.653333 13.653333 34.133333 0 47.786667-13.653333 13.653333-34.133333 13.653333-47.786667 0l-259.413333-266.24z m61.44-409.6c-279.893333 0-512 232.106667-512 512s232.106667 512 512 512 512-232.106667 512-512-232.106667-512-512-512z"  horiz-adv-x="1024" />

    
    <glyph glyph-name="guanbi" unicode="&#58950;" d="M499.2 486.4l364.8 364.8c25.6 25.6 64 25.6 89.6 0s25.6-64 0-89.6l-364.8-364.8 364.8-364.8c25.6-25.6 25.6-64 0-89.6-25.6-25.6-64-25.6-89.6 0l-364.8 364.8-364.8-364.8c-25.6-25.6-64-25.6-89.6 0-25.6 25.6-25.6 64 0 89.6l364.8 364.8-364.8 364.8c-25.6 25.6-25.6 64 0 89.6 25.6 25.6 64 25.6 89.6 0l364.8-364.8z"  horiz-adv-x="1024" />

    
    <glyph glyph-name="quxiao" unicode="&#58945;" d="M513.792 427.456L310.144 631.04a32 32 0 1 1-45.248-45.248l203.648-203.648L264.96 178.55999999999995a32 32 0 0 1 45.248-45.248l203.648 203.648 203.648-203.648a32 32 0 0 1 45.248 45.248L559.04 382.20799999999997l203.648 203.648a32 32 0 0 1-45.248 45.248L513.792 427.456zM512 896a512 512 0 1 0 0-1024A512 512 0 0 0 512 896z"  horiz-adv-x="1024" />

    
    <glyph glyph-name="tubiao-yishoucang" unicode="&#58946;" d="M997.044776 447.845536c20.991969 20.582369 28.313558 50.687924 19.199972 78.643082a76.287886 76.287886 0 0 1-61.849508 52.121522l-246.22043 36.044746a25.599962 25.599962 0 0 0-19.302371 14.079979L579.048603 852.990529A76.287886 76.287886 0 0 1 510.082307 895.998464a76.287886 76.287886 0 0 1-68.966297-43.007935L331.292175 628.786065a25.651162 25.651162 0 0 0-19.302371-14.131179l-246.220431-36.044746A76.287886 76.287886 0 0 1 3.868666 526.488618 76.390285 76.390285 0 0 1 23.068637 447.845536l178.636532-175.462137a25.599962 25.599962 0 0 0 7.32159-22.579166l-42.086337-247.346829a76.287886 76.287886 0 0 1 30.719954-75.161487 76.543885 76.543885 0 0 1 80.895878-5.631991l219.545271 116.275025a25.446362 25.446362 0 0 0 23.961564 0l219.494071-116.275025a76.697485 76.697485 0 0 1 111.615832 80.793478l-42.086337 247.398029a25.651162 25.651162 0 0 0 7.321589 22.527966l178.636532 175.462137z"  horiz-adv-x="1024" />

    
    <glyph glyph-name="kanjiajindutiaoxiaoshuidi" unicode="&#58944;" d="M512-63.926857C755.785143 197.558857 877.714286 395.629714 877.714286 530.285714A365.714286 365.714286 0 1 1 146.285714 530.285714c0-134.582857 121.929143-332.726857 365.714286-594.212571z"  horiz-adv-x="1024" />

    
    <glyph glyph-name="kanjiaxiaolaba" unicode="&#58885;" d="M0 610.730667h268.970667L534.186667 896H597.333333v-1024h-63.146666L268.970667 133.376H0V610.730667z m938.666667 129.706666L987.136 810.666667c125.44-86.528 274.432-227.584 274.432-419.157334s-148.992-332.544-274.432-419.157333L938.666667 42.666667c102.485333 70.656 237.568 184.746667 237.568 348.842666 0 164.181333-135.082667 278.272-237.568 348.928zM801.536 640c130.389333-55.637333 196.608-140.629333 196.608-252.586667s-66.218667-197.034667-196.608-252.586666L768 213.333333c97.450667 41.472 144.810667 98.474667 144.810667 174.08 0 75.605333-47.36 132.522667-144.810667 174.08L801.536 640z"  horiz-adv-x="1280" />

    
    <glyph glyph-name="wenhao1" unicode="&#58882;" d="M512-128a512 512 0 1 0 0 1024 512 512 0 0 0 0-1024z m0 78.769231a433.230769 433.230769 0 1 1 0 866.461538 433.230769 433.230769 0 0 1 0-866.461538z m-6.380308 200.625231c17.408 0 31.744-5.12 44.032-17.408a58.683077 58.683077 0 0 0 17.408-43.008 59.392 59.392 0 0 0-17.408-44.032 64.590769 64.590769 0 0 0-44.032-17.408 59.392 59.392 0 0 0-44.032 17.408 59.549538 59.549538 0 0 0-18.432 44.032c0 17.408 6.144 31.744 18.432 43.008 11.264 12.288 25.6 17.408 44.032 17.408z m14.336 623.616c65.536 0 118.784-17.408 157.696-54.272 37.888-34.816 57.344-82.944 57.344-144.384 0-46.08-13.312-86.016-37.888-119.808-10.24-12.288-38.912-38.912-83.968-78.848a205.587692 205.587692 0 0 1-47.104-55.296 146.668308 146.668308 0 0 1-19.456-75.776v-23.552H463.635692v23.552c0 33.792 6.144 63.488 19.456 89.088 13.312 30.72 48.128 69.632 103.424 118.784 16.384 16.384 27.648 28.672 34.816 36.864 19.456 25.6 29.696 52.224 29.696 80.896 0 40.96-11.264 72.704-33.792 95.232-24.576 24.576-58.368 35.84-101.376 35.84-50.176 0-88.064-16.384-113.664-50.176-21.504-28.672-32.768-67.584-32.768-117.76H287.507692c0 71.68 20.48 129.024 60.416 172.032 41.984 45.056 99.328 67.584 172.032 67.584z"  horiz-adv-x="1024" />

    
    <glyph glyph-name="shouhuodizhi" unicode="&#58935;" d="M1260.8512 67.6352c25.3952-51.9168 25.7536-108.8512 0.8192-148.1216-22.7328-31.5392-55.3472-47.5136-95.232-47.5136H115.9168c-41.8304 0-76.5952 17.408-95.4368 47.7696-26.6752 37.2224-27.4944 94.6176-1.1776 148.2752l154.368 332.2368C200.192 451.6864 251.392 483.4816 311.04 486.3488h7.0656c-6.9632 25.9584-10.8032 49.7664-10.8032 70.912C307.3024 743.8336 456.448 895.7952 639.744 896h0.7168a325.7856 325.7856 0 0 0 200.192-68.608 25.6 25.6 0 0 0-31.232-40.5504A275.4048 275.4048 0 0 1 640.4096 844.8h-0.6656c-155.136-0.1536-281.2416-129.1776-281.2416-287.5392 0-66.0992 45.2608-169.5744 130.9184-299.008a2183.424 2183.424 0 0 1 122.8288-167.168 35.84 35.84 0 0 1 28.1088-14.2848 34.816 34.816 0 0 1 27.136 13.7216 2195.6096 2195.6096 0 0 1 123.2896 167.7312c53.6576 81.1008 91.4432 151.9616 112.128 209.8688l0.2048 0.3584c12.288 34.3552 18.5856 64.1536 18.5856 88.7808 0 39.5264-7.7312 77.7728-23.04 113.664a25.6 25.6 0 0 0 47.2064 20.0192c17.92-42.2912 27.0336-87.2448 27.0336-133.6832 0-21.76-4.096-46.3872-11.52-73.2672h6.2464a159.232 159.232 0 0 0 137.728-82.2272l155.4944-334.1312z m-41.5232-119.3984c14.336 22.6816 12.8 61.3888-4.7104 97.3312l-154.88 333.1072a107.008 107.008 0 0 1-92.16 54.1184h-23.6032c-23.0912-58.368-59.648-125.9008-110.4896-202.8032a2220.0832 2220.0832 0 0 0-125.952-171.3152 85.6576 85.6576 0 0 0-67.072-33.0752 86.9376 86.9376 0 0 0-68.3008 33.5872 2236.7744 2236.7744 0 0 0-125.44 170.752C395.2128 307.9168 358.3488 376.2688 335.36 435.2h-23.04c-39.9872-1.9968-75.0592-23.4496-92.672-57.4464l-154.112-331.7248c-17.9712-36.7104-18.7904-74.9568-2.4064-97.8944 13.6704-21.9136 38.912-24.9344 52.8384-24.9344h1050.5216c23.7056 0 40.5504 7.936 52.8896 25.0368zM481.6896 558.3872A158.5664 158.5664 0 0 0 640.0512 716.8a158.6176 158.6176 0 0 0 158.4128-158.4128 158.6176 158.6176 0 0 0-158.4128-158.4128 158.5664 158.5664 0 0 0-158.3616 158.4128z m265.5744 0A107.3664 107.3664 0 0 1 640.0512 665.6c-59.0848 0-107.1616-48.128-107.1616-107.2128s48.128-107.2128 107.1616-107.2128c59.136 0 107.2128 48.128 107.2128 107.2128z"  horiz-adv-x="1280" />

    
    <glyph glyph-name="tuijianjilu" unicode="&#58938;" d="M204.8 614.4C204.8 741.4272 308.1728 844.8 435.2 844.8S665.6 741.4272 665.6 614.4 562.2272 384 435.2 384A230.656 230.656 0 0 0 204.8 614.4M668.8256-76.8H52.0704A353.28 353.28 0 0 0 51.2-51.2C51.2 160.5632 223.4368 332.8 435.2 332.8c155.2896 0 281.6 126.3104 281.6 281.6S590.4896 896 435.2 896A281.9072 281.9072 0 0 1 153.6 614.4a281.6 281.6 0 0 1 152.4736-249.9584C128.9216 309.2992 0 143.8208 0-51.2c0-18.432 1.1264-36.5568 3.3792-54.3744A25.6 25.6 0 0 1 28.7744-128h640.0512a25.6 25.6 0 0 1 0 51.2m325.3248 209.8176l-199.1168-199.1168-199.0656 199.168a102.5536 102.5536 0 0 0 0 144.7936c19.968 19.968 46.1312 29.9008 72.3456 29.9008s52.4288-9.984 72.448-29.9008l18.1248-18.1248-30.9248-30.8736a25.6 25.6 0 0 1 36.1472-36.1984l47.0016 46.9504a26.3168 26.3168 0 0 1 4.096 4.0448l34.0992 34.2016a102.6048 102.6048 0 0 0 144.896 0c39.936-39.936 39.936-104.9088 0-144.8448m36.1472 181.0432a153.7536 153.7536 0 0 1-217.1904 0l-18.0736-18.1248-18.176 18.1248a153.7024 153.7024 0 0 1-217.1392 0 153.7536 153.7536 0 0 1 0-217.2416l217.2928-217.344a25.7024 25.7024 0 0 1 37.9904 2.048l215.296 215.296a153.7536 153.7536 0 0 1 0 217.2416"  horiz-adv-x="1075" />

    
    <glyph glyph-name="wodehuiyuanqia" unicode="&#58939;" d="M1374.315789 693.894737a26.947368 26.947368 0 0 0-26.947368 26.947368V761.263158c0 44.570947-36.271158 80.842105-80.842105 80.842105h-1131.789474C90.165895 842.105263 53.894737 805.834105 53.894737 761.263158v-754.526316c0-44.570947 36.271158-80.842105 80.842105-80.842105h1131.789474c44.570947 0 80.842105 36.271158 80.842105 80.842105V528.815158a26.947368 26.947368 0 0 0 53.894737 0V6.736842c0-74.266947-60.416-134.736842-134.736842-134.736842h-1131.789474A134.898526 134.898526 0 0 0 0 6.736842v754.526316C0 835.530105 60.416 896 134.736842 896h1131.789474C1340.847158 896 1401.263158 835.530105 1401.263158 761.263158v-40.421053a26.947368 26.947368 0 0 0-26.947369-26.947368zM688.882526 599.578947a26.947368 26.947368 0 0 0 53.894737 0v-431.157894a26.947368 26.947368 0 0 0-53.894737 0v431.157894z m-159.905684 9.701053a27.162947 27.162947 0 0 0 34.816 15.467789c13.850947-5.389474 20.803368-20.965053 15.521684-34.816l-165.456842-431.157894a26.839579 26.839579 0 0 0-25.222737-17.246316h-0.377263a26.947368 26.947368 0 0 0-25.061052 18.054737l-149.396211 431.157895a26.947368 26.947368 0 0 0 50.984421 17.623578l125.197474-361.36421 139.048421 362.226526zM1045.072842 626.526316a147.132632 147.132632 0 0 0 143.845053-146.970948 147.132632 147.132632 0 0 0-143.36-146.970947h-141.042527V168.421053a26.947368 26.947368 0 1 0-53.894736 0v431.157894a26.947368 26.947368 0 0 0 26.947368 26.947369h167.504842z m89.950316-146.970948c0 51.307789-41.714526 93.076211-93.076211 93.076211h-137.431579v-186.152421h137.431579c51.361684 0 93.076211 41.768421 93.076211 93.07621z"  horiz-adv-x="1401" />

    
    <glyph glyph-name="dailirenzhaomu" unicode="&#58940;" d="M1100.8 0h-51.2c0 183.5008-149.2992 332.8-332.8 332.8v51.2c98.816 0 179.2 80.384 179.2 179.2S815.616 742.4 716.8 742.4V793.6c127.0272 0 230.4-103.3728 230.4-230.4a230.6048 230.6048 0 0 0-112.2816-197.7856c154.112-49.92 265.8816-194.8672 265.8816-365.4144zM153.6-102.4H102.4v102.4H0v51.2h102.4v102.4h51.2v-102.4h102.4v-51.2H153.6v-102.4zM409.6 844.8a230.656 230.656 0 0 1-230.4-230.4C179.2 487.3728 282.5728 384 409.6 384s230.4 103.3728 230.4 230.4S536.6272 844.8 409.6 844.8z m431.872-950.3232l-50.8416 6.2464c1.8944 15.7696 2.9696 31.7952 2.9696 48.0768 0 211.7632-172.2368 384-384 384a379.904 379.904 0 0 1-234.1376-79.6672l-31.3344 40.5504a433.3056 433.3056 0 0 0 135.7824 70.8096A281.9072 281.9072 0 0 0 128 614.4C128 769.6896 254.3616 896 409.6 896s281.6-126.3104 281.6-281.6a281.9072 281.9072 0 0 0-152.1664-250.0608c176.9472-55.1936 305.7664-220.6208 305.7664-415.5392 0-18.3808-1.1264-36.5056-3.328-54.3232z"  horiz-adv-x="1126" />

    
    <glyph glyph-name="wodeziliao" unicode="&#58941;" d="M716.379127 614.565343a281.741677 281.741677 0 0 0-279.13201-281.332317c-0.767549 0-1.483928-0.460529-2.302647-0.46053-211.638862 0-383.774532-172.13567-383.774532-383.774532 0-16.11853 0.972229-32.032381 2.916686-47.588042a25.584969 25.584969 0 1 0-50.760578-6.396243A437.502967 437.502967 0 0 0 0-51.002036c0 195.110972 129.101753 360.543381 306.354417 415.499894A281.588167 281.588167 0 0 0 153.509813 614.565343C153.509813 769.763764 279.746049 896 434.94447 896S716.379127 769.763764 716.379127 614.565343zM434.94447 384.300623c126.952615 0 230.264719 103.363274 230.26472 230.26472C665.20919 741.517958 561.897085 844.830062 434.94447 844.830062A230.520569 230.520569 0 0 1 204.679751 614.565343C204.679751 487.663897 307.991855 384.300623 434.94447 384.300623z m284.863043-106.58698a434.94447 434.94447 0 0 0 146.755381-382.648794 25.636139 25.636139 0 0 0-25.380289-22.463602c-1.023399 0-2.046798 0.10234-3.172536 0.20468a25.636139 25.636139 0 0 0-22.258923 28.552825 383.774532 383.774532 0 0 1-129.459942 337.670418 25.636139 25.636139 0 0 0 33.516309 38.684473zM1100.15366 896C1170.665834 896 1228.078504 838.58733 1228.078504 768.075156v-767.549065c0-70.512174-57.41267-127.924844-127.924844-127.924844H972.228816a25.584969 25.584969 0 0 0 0 51.169937h127.924844c42.317538 0 76.754906 34.437368 76.754906 76.754907v767.549065c0 42.317538-34.437368 76.754906-76.754906 76.754906h-358.189564a25.584969 25.584969 0 0 0 0 51.169938h358.189564z m-51.169938-262.245931h-187.640161a25.584969 25.584969 0 0 0 0 51.169938H1048.983722a25.584969 25.584969 0 0 0 0-51.169938z m-264.343898-179.094781a25.584969 25.584969 0 0 0 25.584969 25.584968H1048.983722a25.584969 25.584969 0 0 0 0-51.169937h-238.861269a25.584969 25.584969 0 0 0-25.584969 25.584969z m289.928867-204.679751a25.584969 25.584969 0 0 0-25.584969-25.584969h-136.470224a25.584969 25.584969 0 0 0 0 51.169938H1048.983722a25.584969 25.584969 0 0 0 25.584969-25.584969z"  horiz-adv-x="1228" />

    
    <glyph glyph-name="wodeerweima" unicode="&#58942;" d="M332.8 896C403.3536 896 460.8 838.5536 460.8 768v-204.8C460.8 492.6464 403.3536 435.2 332.8 435.2h-204.8A128.1536 128.1536 0 0 0 0 563.2v204.8C0 838.5536 57.4464 896 128 896h204.8zM409.6 563.2v204.8C409.6 810.3424 375.1424 844.8 332.8 844.8h-204.8C85.6576 844.8 51.2 810.3424 51.2 768v-204.8C51.2 520.8576 85.6576 486.4 128 486.4h204.8C375.1424 486.4 409.6 520.8576 409.6 563.2zM691.2 435.2A128.1536 128.1536 0 0 0 563.2 563.2v204.8C563.2 838.5536 620.6464 896 691.2 896h204.8C966.5536 896 1024 838.5536 1024 768a25.6 25.6 0 0 0-51.2 0c0 42.3424-34.4576 76.8-76.8 76.8h-204.8c-42.3424 0-76.8-34.4576-76.8-76.8v-204.8c0-42.3424 34.4576-76.8 76.8-76.8h204.8c21.4016 0 42.0352 9.1648 56.576 25.088A76.288 76.288 0 0 1 972.8 563.2v36.8128a25.6 25.6 0 0 0 51.2 0V563.2c0-31.9488-11.9296-62.6176-33.6384-86.272A128.1536 128.1536 0 0 0 896 435.2h-204.8z m-358.4-102.4C403.3536 332.8 460.8 275.3536 460.8 204.8v-204.8C460.8-70.5536 403.3536-128 332.8-128h-204.8A128.1536 128.1536 0 0 0 0 0v204.8C0 275.3536 57.4464 332.8 128 332.8h204.8zM409.6 0v204.8c0 42.3424-34.4576 76.8-76.8 76.8h-204.8c-42.3424 0-76.8-34.4576-76.8-76.8v-204.8c0-42.3424 34.4576-76.8 76.8-76.8h204.8c42.3424 0 76.8 34.4576 76.8 76.8z m435.2 112.0256a25.6 25.6 0 0 0-25.6-25.6h-204.8V-102.4a25.6 25.6 0 1 0-51.2 0v214.4256a25.6 25.6 0 0 0 25.6 25.6h204.8V307.2a25.6 25.6 0 0 0 25.6 25.4976h179.2a25.6 25.6 0 1 0 0-51.0976h-153.6v-169.6256z m153.6-25.2928a25.6 25.6 0 0 0 25.6-25.6V-102.4a25.6 25.6 0 0 0-25.6-25.6H819.2a25.5488 25.5488 0 1 0 0 51.2h153.6v137.9328a25.6 25.6 0 0 0 25.6 25.6zM256 768c42.3424 0 76.8-34.4576 76.8-76.8v-51.2c0-42.3424-34.4576-76.8-76.8-76.8H204.8c-42.3424 0-76.8 34.4576-76.8 76.8V691.2c0 42.3424 34.4576 76.8 76.8 76.8h51.2zM281.6 640V691.2a25.6 25.6 0 0 1-25.6 25.6H204.8a25.6 25.6 0 0 1-25.6-25.6v-51.2a25.6 25.6 0 0 1 25.6-25.6h51.2a25.6 25.6 0 0 1 25.6 25.6z"  horiz-adv-x="1025" />

    
    <glyph glyph-name="wodetuangou" unicode="&#58943;" d="M977.454334 581.817859l46.452342-463.127062c0.093091-66.466879-52.130885-118.690855-116.270492-118.690855h-50.920704a23.272717 23.272717 0 1 0 0 46.545433H907.636184c38.493073 0 69.81815 31.325077 69.81815 69.81815l-1.396363 14.149812h-135.307575a23.272717 23.272717 0 1 0 0 46.545433h130.606486L931.001991 579.490588C930.9089 620.310933 899.583824 651.636009 861.09075 651.636009h-46.545433v-104.820316a23.272717 23.272717 0 1 0-46.545433 0V651.636009h-139.636301a23.272717 23.272717 0 0 0 0 46.545434h139.636301V709.817801c0 76.986147-62.650153 139.6363-139.636301 139.6363-42.682162 0-82.478508-19.176719-109.149041-52.549794a23.272717 23.272717 0 1 0-36.351983 29.04435A185.157734 185.157734 0 0 0 628.363583 895.999535c102.679226 0 186.181734-83.502507 186.181734-186.181734v-11.636358h46.545433c64.139607 0 116.363583-52.223976 116.363584-116.363584zM581.81815 570.181501h46.545433C692.503191 570.181501 744.727167 517.957525 744.727167 453.817917l46.452342-463.127062C791.2726-75.776024 739.048624-128 674.909017-128h-558.545201A116.50322 116.50322 0 0 0 0.000233-11.636417l16.663265 167.703197a23.412353 23.412353 0 0 0 25.460352 20.852354 23.319262 23.319262 0 0 0 20.852354-25.506897l-10.239995-102.353408h685.893506l-40.354891 402.431817C698.181734 492.310991 666.856657 523.636067 628.363583 523.636067h-46.545433v-139.822481c27.042897-9.634905 46.545433-35.234893 46.545433-65.535971 0-38.493073-31.325077-69.81815-69.81815-69.81815s-69.81815 31.325077-69.81815 69.81815c0 30.301077 19.502537 55.901065 46.545434 65.535971V523.636067h-279.272601v-139.822481c27.042897-9.634905 46.545433-35.234893 46.545434-65.535971 0-38.493073-31.325077-69.81815-69.81815-69.81815s-69.81815 31.325077-69.81815 69.81815c0 30.301077 19.502537 55.901065 46.545433 65.535971V523.636067h-46.545433C124.416176 523.636067 93.0911 492.310991 93.0911 453.817917l-13.637812-137.867573a23.319262 23.319262 0 0 0-46.359252 4.654543l13.544721 135.540302C46.545666 517.957525 98.769642 570.181501 162.90925 570.181501h46.545433v11.636358c0 102.679226 83.502507 186.181734 186.181734 186.181734s186.181734-83.502507 186.181733-186.181734V570.181501z m-325.818034 0h279.272601v11.636358c0 76.986147-62.650153 139.6363-139.6363 139.6363s-139.6363-62.650153-139.636301-139.6363V570.181501zM232.7274 293.236172a23.272717 23.272717 0 1 1 0 46.545434 23.272717 23.272717 0 0 1 0-46.545434z m325.818033 0a23.272717 23.272717 0 1 1 0 46.545434 23.272717 23.272717 0 0 1 0-46.545434zM674.909017-81.454567c38.493073 0 69.81815 31.325077 69.81815 69.81815l-1.396363 14.149812H48.081665l-1.62909-16.477083C46.545666-50.12949 77.870743-81.454567 116.363816-81.454567h558.545201z"  horiz-adv-x="1024" />

    
    <glyph glyph-name="anquanwancheng" unicode="&#58926;" d="M53.894737 413.103158v350.854737c126.652632 40.421053 266.24 88.387368 458.105263 131.503158 191.865263-43.654737 331.452632-91.621053 458.105263-131.503158v-350.854737c0-314.206316-256.538947-487.208421-458.105263-541.103158-201.566316 53.894737-458.105263 226.896842-458.105263 541.103158z m254.922105-35.570526l142.282105-147.132632c2.155789-2.155789 5.389474-2.155789 7.545264 0l309.894736 305.044211c2.155789 2.155789 2.155789 5.389474 0 7.545263l-17.785263 17.246315c-2.155789 2.155789-5.928421 2.155789-8.08421 0.538948l-284.025263-236.597895c-2.155789-2.155789-5.928421-2.155789-8.623158 0l-115.873685 88.926316c-2.155789 1.616842-5.928421 1.077895-7.545263-1.077895l-18.863158-25.869474c-1.077895-2.694737-1.077895-6.467368 1.077895-8.623157z"  horiz-adv-x="1024" />

    
    <glyph glyph-name="anquanjinggao" unicode="&#58928;" d="M53.894737 413.103158v350.854737c126.652632 40.421053 266.24 88.387368 458.105263 131.503158 191.865263-43.654737 331.452632-91.621053 458.105263-131.503158v-350.854737c0-314.206316-256.538947-487.208421-458.105263-541.103158-201.566316 53.894737-458.105263 226.896842-458.105263 541.103158z m431.157895 202.64421c-5.928421 0-10.778947-4.850526-10.24-10.778947l11.856842-324.446316c0-2.694737 2.694737-5.389474 5.389473-5.389473h39.343158c3.233684 0 5.389474 2.694737 5.389474 5.389473l11.856842 324.446316c0 5.928421-4.311579 10.778947-10.24 10.778947h-53.355789z m26.947368-463.494736c21.018947 0 37.726316 16.707368 37.726316 37.726315s-16.707368 37.726316-37.726316 37.726316-37.726316-16.707368-37.726316-37.726316 16.707368-37.726316 37.726316-37.726315z"  horiz-adv-x="1024" />

    
    <glyph glyph-name="cijijinggao" unicode="&#58929;" d="M1024 377.944086c0-276.369892-229.023656-505.944086-518.055914-505.944086-276.369892 0-505.944086 229.023656-505.944086 505.944086 0 289.032258 229.023656 518.055914 505.944086 518.055914 289.032258 0 518.055914-229.023656 518.055914-518.055914z m-539.526882 242.787097c-6.055914 0-11.010753-4.954839-10.460215-11.010753l12.111828-331.423656c0-2.752688 2.752688-5.505376 5.505377-5.505376h40.189247c3.303226 0 5.505376 2.752688 5.505376 5.505376l12.111828 331.423656c0 6.055914-4.404301 11.010753-10.460215 11.010753h-54.503226z m27.526882-473.462366c21.470968 0 38.537634 17.066667 38.537634 38.537635s-17.066667 38.537634-38.537634 38.537634-38.537634-17.066667-38.537634-38.537634 17.066667-38.537634 38.537634-38.537635z"  horiz-adv-x="1024" />

    
    <glyph glyph-name="dengdai" unicode="&#58930;" d="M531.268817 336.653763l-14.313978 350.141936c0 2.752688-2.752688 5.505376-5.505377 5.505376h-44.04301c-2.752688 0-5.505376-2.202151-5.505377-5.505376l-15.965591-390.881721c0-3.853763 1.651613-7.156989 4.404301-8.808602 1.101075-1.651613 2.752688-3.303226 4.404301-3.853763l258.752688-123.32043c2.752688-1.101075 6.055914 0 7.707527 2.20215l16.516129 28.627957c1.651613 2.752688 0.550538 6.055914-1.651613 7.707527l-204.8 138.184946zM1024 377.944086c0-276.369892-229.023656-505.944086-518.055914-505.944086-276.369892 0-505.944086 229.023656-505.944086 505.944086 0 289.032258 229.023656 518.055914 505.944086 518.055914 289.032258 0 518.055914-229.023656 518.055914-518.055914z"  horiz-adv-x="1024" />

    
    <glyph glyph-name="wancheng" unicode="&#58932;" d="M1024 377.944086c0-276.369892-229.023656-505.944086-518.055914-505.944086-276.369892 0-505.944086 229.023656-505.944086 505.944086 0 289.032258 229.023656 518.055914 505.944086 518.055914 289.032258 0 518.055914-229.023656 518.055914-518.055914z m-766.348387-27.526882l167.913978-173.969892c2.202151-2.202151 5.505376-2.202151 7.707527 0l363.905377 358.4c2.202151 2.202151 2.202151 5.505376 0 7.707527l-22.021506 21.470967c-2.202151 2.202151-6.055914 2.202151-8.258064 0.550538l-333.625807-278.021505c-2.202151-1.651613-6.055914-2.202151-8.808602 0l-137.083871 105.152688c-2.202151 1.651613-6.055914 1.101075-7.707527-1.101075l-23.12258-31.380646c-1.101075-2.752688-0.550538-6.606452 1.101075-8.808602z"  horiz-adv-x="1024" />

    
    <glyph glyph-name="jinggao" unicode="&#58933;" d="M1024 377.944086c0-276.369892-229.023656-505.944086-518.055914-505.944086-276.369892 0-505.944086 229.023656-505.944086 505.944086 0 289.032258 229.023656 518.055914 505.944086 518.055914 289.032258 0 518.055914-229.023656 518.055914-518.055914z m-539.526882 242.787097c-6.055914 0-11.010753-4.954839-10.460215-11.010753l12.111828-331.423656c0-2.752688 2.752688-5.505376 5.505377-5.505376h40.189247c3.303226 0 5.505376 2.752688 5.505376 5.505376l12.111828 331.423656c0 6.055914-4.404301 11.010753-10.460215 11.010753h-54.503226z m27.526882-473.462366c21.470968 0 38.537634 17.066667 38.537634 38.537635s-17.066667 38.537634-38.537634 38.537634-38.537634-17.066667-38.537634-38.537634 17.066667-38.537634 38.537634-38.537635z"  horiz-adv-x="1024" />

    
    <glyph glyph-name="guanyu" unicode="&#58934;" d="M1024 377.944086c0-276.369892-229.023656-505.944086-518.055914-505.944086-276.369892 0-505.944086 229.023656-505.944086 505.944086 0 289.032258 229.023656 518.055914 505.944086 518.055914 289.032258 0 518.055914-229.023656 518.055914-518.055914z m-528.516129-258.202151h33.032258c6.055914 0 11.010753 4.954839 11.010753 11.010753l8.808602 347.939785c0 6.055914-4.404301 11.010753-10.460215 11.010753h-51.2c-6.055914 0-11.010753-4.954839-10.460215-11.010753l8.808602-347.939785c-0.550538-6.055914 4.404301-11.010753 10.460215-11.010753z m16.516129 506.494624c-24.223656 0-44.043011-19.819355-44.043011-44.043011s19.819355-44.043011 44.043011-44.04301 44.043011 19.819355 44.043011 44.04301-19.819355 44.043011-44.043011 44.043011z"  horiz-adv-x="1024" />

    
    <glyph glyph-name="tubiao-dingdan" unicode="&#58924;" d="M768 742.4a25.6 25.6 0 1 0 0 51.2 102.4 102.4 0 0 0 102.4-102.4v-614.4a102.4 102.4 0 0 0-102.4-102.4H256a102.4 102.4 0 0 0-102.4 102.4V691.2a102.4 102.4 0 0 0 102.4 102.4h51.2a25.6 25.6 0 0 0 0-51.2H256a51.2 51.2 0 0 1-51.2-51.2v-614.4a51.2 51.2 0 0 1 51.2-51.2h512a51.2 51.2 0 0 1 51.2 51.2V691.2a51.2 51.2 0 0 1-51.2 51.2zM332.8 537.6h358.4a25.6 25.6 0 1 0 0-51.2h-358.4a25.6 25.6 0 0 0 0 51.2z m0-153.6h358.4a25.6 25.6 0 1 0 0-51.2h-358.4a25.6 25.6 0 1 0 0 51.2z m0-153.6h358.4a25.6 25.6 0 1 0 0-51.2h-358.4a25.6 25.6 0 1 0 0 51.2z m102.4 563.2h204.8a25.6 25.6 0 1 0 0-51.2h-204.8a25.6 25.6 0 0 0 0 51.2z"  horiz-adv-x="1024" />

    
    </font>
</defs>
</svg>
